<?xml version="1.0" encoding="utf-8"?>
<!-- Generator: Adobe Illustrator 16.0.0, SVG Export Plug-In . SVG Version: 6.00 Build 0)  -->
<!DOCTYPE svg PUBLIC "-//W3C//DTD SVG 1.1//EN" "http://www.w3.org/Graphics/SVG/1.1/DTD/svg11.dtd">
<svg version="1.1" id="Layer_1" xmlns="http://www.w3.org/2000/svg" xmlns:xlink="http://www.w3.org/1999/xlink" x="0px" y="0px"
	 width="123px" height="107px" viewBox="0 0 123 107" enable-background="new 0 0 123 107" xml:space="preserve">
<g>
	<path fill="#15489E" d="M18.101,50.204c0,24.058,19.164,43.627,42.719,43.627c23.563,0,42.734-19.569,42.734-43.627
		c0-24.046-19.172-43.615-42.734-43.615C37.265,6.589,18.101,26.158,18.101,50.204L18.101,50.204z"/>
	<path fill="#A70E13" d="M18.101,50.204c0,24.058,19.164,43.627,42.719,43.627c23.563,0,42.734-19.569,42.734-43.627
		c0-24.046-19.172-43.615-42.734-43.615C37.265,6.589,18.101,26.158,18.101,50.204L18.101,50.204z"/>
	<path fill="#BCBEC0" d="M22.523,50.204c0-21.55,17.179-39.095,38.296-39.095c21.134,0,38.309,17.544,38.309,39.095
		c0,21.565-17.175,39.114-38.309,39.114C39.702,89.318,22.523,71.77,22.523,50.204L22.523,50.204z"/>
	<path fill="#FFFFFF" d="M22.523,50.204c0-21.55,17.179-39.095,38.296-39.095c21.134,0,38.309,17.544,38.309,39.095
		c0,21.565-17.175,39.114-38.309,39.114C39.702,89.318,22.523,71.77,22.523,50.204L22.523,50.204z"/>
	<path fill="none" stroke="#FFFFFF" d="M22.523,50.204c0-21.55,17.179-39.095,38.296-39.095c21.134,0,38.309,17.544,38.309,39.095
		c0,21.565-17.175,39.114-38.309,39.114C39.702,89.318,22.523,71.77,22.523,50.204L22.523,50.204z"/>
	<path fill="#A70E13" d="M38.479,34.661l-5.684-5.24c-0.181-0.173-0.279-0.381-0.295-0.625c-0.016-0.251,0.063-0.476,0.236-0.672
		l2.099-2.358c0.586-0.68,1.171-1.054,1.753-1.148c0.609-0.086,1.164,0.118,1.667,0.578c0.311,0.283,0.526,0.609,0.629,0.956
		c0.079,0.326,0.071,0.676-0.024,1.038c0.425-0.188,0.833-0.275,1.234-0.212c0.385,0.047,0.755,0.251,1.14,0.609
		c0.621,0.563,0.924,1.211,0.908,1.922c-0.032,0.724-0.385,1.458-1.05,2.217L38.479,34.661 M35.731,29.786l1.34-1.521
		c0.287-0.322,0.44-0.602,0.46-0.861c0.023-0.248-0.086-0.491-0.314-0.7c-0.244-0.228-0.468-0.299-0.723-0.259
		c-0.201,0.031-0.464,0.236-0.794,0.601l-1.321,1.498L35.731,29.786 M38.487,32.326l1.392-1.565c0.298-0.357,0.468-0.676,0.495-0.99
		c0.035-0.279-0.094-0.563-0.393-0.841c-0.295-0.275-0.59-0.385-0.885-0.338c-0.267,0.047-0.57,0.252-0.912,0.641l-1.368,1.545
		L38.487,32.326L38.487,32.326z"/>
	<path fill="#A70E13" d="M43.456,29.122l-4.194-6.533c-0.142-0.205-0.181-0.437-0.134-0.688c0.055-0.259,0.181-0.437,0.401-0.578
		l4.45-2.976l0.794,1.242l-3.735,2.508l1.015,1.577l2.775-1.859l0.323,0.483c0.129,0.205,0.169,0.433,0.122,0.68
		c-0.051,0.244-0.177,0.444-0.393,0.578l-2.032,1.368l1.203,1.871l3.75-2.496l0.865,1.34L43.456,29.122L43.456,29.122z"/>
	<path fill="#A70E13" d="M48.051,22.852l1.659-0.554c0.212,0.456,0.507,0.735,0.873,0.822c0.381,0.118,0.857,0.079,1.403-0.11
		c0.476-0.165,0.826-0.381,1.022-0.633c0.197-0.271,0.228-0.562,0.118-0.904c-0.165-0.515-1.002-0.688-2.528-0.53l-0.055-0.008
		l-0.208,0.024c-0.857,0.094-1.443,0.094-1.777-0.008c-0.381-0.071-0.68-0.26-0.92-0.546c-0.251-0.236-0.452-0.57-0.594-1.026
		c-0.259-0.786-0.192-1.49,0.197-2.123c0.397-0.617,1.104-1.093,2.126-1.451c0.959-0.322,1.773-0.346,2.438-0.079
		c0.704,0.311,1.195,0.873,1.486,1.663l-0.947,0.318c-0.358,0.125-0.661,0.039-0.936-0.24l-0.464-0.299
		c-0.354-0.114-0.774-0.086-1.258,0.086c-0.483,0.157-0.778,0.354-0.928,0.609c-0.177,0.251-0.216,0.539-0.114,0.853
		c0.146,0.436,0.7,0.609,1.683,0.507c0.287-0.016,0.503-0.023,0.637-0.055c0.322,0,0.585-0.016,0.81-0.032l0.554-0.031
		c0.252,0.016,0.515,0.031,0.759,0.047c0.374,0.095,0.704,0.248,0.987,0.5c0.267,0.275,0.483,0.617,0.609,1.022
		c0.283,0.869,0.224,1.631-0.189,2.304c-0.417,0.641-1.151,1.14-2.182,1.501c-1.077,0.358-1.954,0.405-2.642,0.13
		C48.936,24.337,48.401,23.752,48.051,22.852L48.051,22.852z"/>
	<path fill="#A70E13" d="M58.339,22.954l-0.381-7.182l-2.532,0.142l-0.023-0.641c-0.02-0.244,0.055-0.472,0.224-0.656
		c0.157-0.189,0.366-0.291,0.625-0.299l5.901-0.318l0.082,1.529l-2.496,0.141l0.37,7.174L58.339,22.954L58.339,22.954z"/>
	<path fill="#A70E13" d="M65.254,23.024l0.047-9.081l1.741,0.515l-0.287,6.333l2.894-5.559l1.813,0.546l-0.539,6.262l2.783-4.89
		c0.221-0.397,0.559-0.531,1.019-0.389l1.046,0.311l-4.753,7.685l-1.611-0.492l0.589-6.8L66.857,23.5L65.254,23.024L65.254,23.024z"
		/>
	<path fill="#A70E13" d="M81.563,21.004l1.116,0.849l-2.669,8.873l-1.485-1.14l0.612-1.804l-2.657-2.024l-1.509,1.101l-1.486-1.156
		l7.064-4.769C80.892,20.721,81.226,20.745,81.563,21.004 M80.856,22.627l-3.142,2.233l1.911,1.466L80.856,22.627L80.856,22.627z"/>
	<path fill="#A70E13" d="M83.073,34.948l-1.034-1.466l2.579-1.907l2.547-5.763l1.258,1.781l-1.926,3.703l3.443-0.672
		c0.37-0.071,0.669,0.063,0.893,0.373l0.821,1.18l-5.99,0.873L83.073,34.948L83.073,34.948z"/>
	<path fill="#A70E13" d="M32.818,72.717l5.5-5.468c0.169-0.169,0.385-0.256,0.629-0.248c0.24,0,0.464,0.079,0.653,0.248l1.179,1.258
		l-3.51,5.881l5.869-3.412l1.816,1.902l-6.156,6.109L37.666,77.8l4.949-4.926l-6.168,3.645l-1.266-1.329l3.734-6.199l-4.953,4.914
		L32.818,72.717L32.818,72.717z"/>
	<path fill="#A70E13" d="M43.083,77.073c0.546-1.29,1.329-2.194,2.315-2.646c1.042-0.443,2.146-0.412,3.298,0.103
		c1.148,0.507,1.918,1.31,2.324,2.387c0.361,1.08,0.267,2.264-0.287,3.545c-0.542,1.29-1.321,2.162-2.331,2.618
		c-1.019,0.444-2.115,0.397-3.283-0.125c-1.187-0.531-1.969-1.313-2.335-2.359C42.43,79.55,42.532,78.37,43.083,77.073 M44.71,77.8
		c-0.385,0.904-0.472,1.655-0.299,2.296c0.169,0.648,0.613,1.124,1.305,1.435c0.688,0.307,1.329,0.307,1.922,0
		c0.609-0.318,1.097-0.912,1.47-1.788c0.37-0.873,0.468-1.647,0.287-2.331c-0.193-0.665-0.629-1.141-1.313-1.439
		c-0.696-0.311-1.337-0.311-1.918,0C45.583,76.286,45.095,76.899,44.71,77.8L44.71,77.8z"/>
	<path fill="#A70E13" d="M53.995,85.732l1.148-7.091l-2.504-0.429l0.103-0.633c0.039-0.248,0.165-0.437,0.357-0.578
		c0.205-0.146,0.433-0.208,0.676-0.169l5.838,0.99l-0.24,1.521l-2.48-0.421l-1.14,7.096L53.995,85.732L53.995,85.732z"/>
	<path fill="#A70E13" d="M60.218,82.36c-0.173-1.407,0.047-2.563,0.672-3.491c0.68-0.912,1.643-1.45,2.885-1.623
		c1.246-0.157,2.304,0.134,3.196,0.849c0.837,0.751,1.353,1.828,1.518,3.212c0.177,1.396-0.067,2.551-0.712,3.467
		c-0.652,0.889-1.615,1.428-2.885,1.585c-1.29,0.165-2.344-0.103-3.185-0.83C60.89,84.821,60.387,83.771,60.218,82.36 M61.975,82.14
		c0.119,0.972,0.422,1.679,0.889,2.131c0.465,0.479,1.094,0.664,1.844,0.559c0.735-0.095,1.289-0.425,1.655-0.995
		c0.361-0.594,0.487-1.364,0.369-2.304c-0.117-0.936-0.424-1.662-0.915-2.162c-0.492-0.476-1.102-0.656-1.844-0.562
		c-0.74,0.094-1.321,0.428-1.655,1.006C61.975,80.383,61.854,81.157,61.975,82.14L61.975,82.14z"/>
	<path fill="#A70E13" d="M71.512,84.75l-2.846-7.272c-0.087-0.231-0.087-0.46,0.008-0.699l0.491-0.479l3.023-1.23
		c0.868-0.354,1.564-0.417,2.138-0.221c0.582,0.229,1.019,0.704,1.317,1.475c0.2,0.487,0.256,0.955,0.169,1.368
		c-0.063,0.389-0.268,0.734-0.602,1.037c0.394-0.016,0.72,0.071,0.959,0.268c0.24,0.177,0.472,0.555,0.72,1.101l0.425,0.951
		l0.125,0.307l0.142,0.287c0.157,0.275,0.323,0.413,0.488,0.429l-1.801,0.735l-0.338-0.437c-0.126-0.236-0.213-0.39-0.252-0.499
		l-0.365-0.854c-0.217-0.468-0.44-0.755-0.673-0.904c-0.235-0.102-0.565-0.063-0.998,0.11l-1.714,0.691l1.23,3.165L71.512,84.75
		 M71.366,79.51l1.911-0.782c0.404-0.157,0.68-0.373,0.813-0.633c0.126-0.247,0.126-0.57-0.016-0.928
		c-0.149-0.365-0.354-0.586-0.621-0.68c-0.248-0.118-0.566-0.103-0.928,0.039l-1.997,0.821L71.366,79.51L71.366,79.51z"/>
	<path fill="#A70E13" d="M78.918,78.354l1.345-1.148c0.365,0.343,0.739,0.484,1.108,0.437c0.396-0.039,0.813-0.247,1.27-0.633
		c0.386-0.342,0.621-0.656,0.704-0.982c0.09-0.318,0.016-0.602-0.209-0.881c-0.342-0.425-1.183-0.26-2.547,0.476l-0.047,0.016
		l-0.182,0.087c-0.767,0.412-1.316,0.637-1.658,0.668c-0.382,0.079-0.724,0.031-1.058-0.161c-0.314-0.118-0.613-0.361-0.924-0.728
		c-0.523-0.633-0.72-1.313-0.586-2.052c0.146-0.72,0.625-1.431,1.446-2.143c0.771-0.664,1.525-0.998,2.245-0.998
		c0.747,0.031,1.407,0.357,1.974,0.975l-0.759,0.648c-0.291,0.275-0.613,0.314-0.967,0.142l-0.539-0.094
		c-0.357,0.031-0.747,0.204-1.14,0.546c-0.374,0.33-0.594,0.633-0.637,0.908c-0.067,0.311,0,0.598,0.216,0.857
		c0.291,0.357,0.877,0.282,1.741-0.182c0.264-0.105,0.468-0.224,0.566-0.286c0.291-0.118,0.542-0.236,0.751-0.331l0.499-0.255
		c0.235-0.071,0.483-0.149,0.724-0.229c0.385-0.063,0.746-0.039,1.089,0.095c0.369,0.157,0.672,0.389,0.947,0.711
		c0.586,0.696,0.798,1.42,0.664,2.21c-0.157,0.759-0.656,1.497-1.494,2.225c-0.853,0.735-1.654,1.108-2.397,1.108
		C80.282,79.384,79.574,79.058,78.918,78.354L78.918,78.354z"/>
	<path fill="#A70E13" d="M36.085,50.09c0-13.932,11.102-25.253,24.734-25.253c13.641,0,24.742,11.321,24.742,25.253
		c0,13.92-11.102,25.249-24.742,25.249C47.187,75.339,36.085,64.01,36.085,50.09L36.085,50.09z"/>
	<polygon fill="#A70E13" points="101.325,62.245 20.322,62.245 20.322,38.179 101.325,38.179 101.325,62.245 	"/>
	<path fill="#FFFFFF" d="M43.035,59.926V42.546c0-0.578,0.189-1.038,0.586-1.439c0.389-0.397,0.845-0.602,1.411-0.602h6.962
		c1.954,0,3.448,0.417,4.485,1.25c1.026,0.9,1.541,2.13,1.541,3.664c0,0.991-0.197,1.812-0.617,2.496
		c-0.397,0.633-0.971,1.14-1.706,1.525c0.959,0.405,1.69,0.991,2.205,1.75c0.484,0.715,0.72,1.655,0.72,2.827
		c0,1.871-0.586,3.341-1.761,4.395c-1.223,1.006-2.929,1.514-5.15,1.514H43.035 M46.793,48.019h4.474
		c0.959,0,1.655-0.173,2.091-0.515c0.448-0.334,0.664-0.849,0.664-1.577c0-0.711-0.216-1.242-0.664-1.576
		c-0.358-0.299-1.077-0.448-2.146-0.448h-4.418V48.019 M46.793,56.419h4.646c1.022,0,1.82-0.2,2.375-0.609
		c0.511-0.389,0.767-1.022,0.767-1.918c0-0.9-0.256-1.553-0.767-1.97c-0.488-0.366-1.297-0.554-2.434-0.554h-4.587V56.419
		L46.793,56.419z"/>
	<path fill="#FFFFFF" d="M60.843,59.926V42.515c0-0.554,0.188-1.038,0.578-1.438c0.394-0.389,0.864-0.602,1.419-0.653h3.813
		l3.758,14.872l3.773-14.872h5.795v19.502h-3.625V44.209l-3.88,15.717h-4.053l-3.938-15.717v15.717H60.843L60.843,59.926z"/>
	<polygon points="21.407,94.743 22.904,94.743 22.904,102.389 27.806,102.389 27.806,103.316 21.407,103.316 21.407,94.743 	"/>
	<path d="M30.008,100.436c0.031,1.501,1.297,2.13,2.795,2.13c1.085,0,1.737-0.138,2.284-0.311l0.267,0.79
		c-0.519,0.178-1.439,0.397-2.748,0.397c-2.52,0-4.053-1.266-4.053-3.109c0-1.863,1.486-3.326,3.876-3.326
		c2.689,0,3.389,1.766,3.389,2.897l-0.047,0.539L30.008,100.436L30.008,100.436z M34.379,99.633c0.016-0.703-0.393-1.819-2.06-1.819
		c-1.533,0-2.182,1.037-2.296,1.819H34.379L34.379,99.633z"/>
	<path d="M39.481,95.687v1.478h2.139v0.85h-2.139v3.313c0,0.763,0.279,1.191,1.132,1.191c0.397,0,0.637-0.016,0.857-0.066
		l0.071,0.849c-0.291,0.07-0.755,0.149-1.325,0.149c-0.696,0-1.262-0.173-1.624-0.468c-0.409-0.346-0.578-0.893-0.578-1.619v-3.35
		H36.75v-0.85h1.266v-1.132L39.481,95.687L39.481,95.687z"/>
	<path d="M43.106,102.177c0.46,0.212,1.234,0.437,1.989,0.437c1.069,0,1.58-0.397,1.58-0.92c0-0.531-0.42-0.822-1.509-1.125
		c-1.498-0.412-2.194-1.014-2.194-1.741c0-0.99,1.085-1.813,2.838-1.813c0.833,0,1.568,0.174,2.013,0.39l-0.357,0.798
		c-0.331-0.142-0.916-0.35-1.687-0.35c-0.893,0-1.364,0.373-1.364,0.825c0,0.531,0.472,0.759,1.545,1.062
		c1.419,0.394,2.162,0.924,2.162,1.859c0,1.093-1.132,1.852-3.058,1.852c-0.904,0-1.738-0.173-2.315-0.429L43.106,102.177
		L43.106,102.177z"/>
	<path d="M53.657,98.827c0-0.656-0.036-1.155-0.075-1.663h1.317l0.067,0.983h0.055c0.46-0.578,1.223-1.133,2.599-1.133
		c1.104,0,1.965,0.508,2.312,1.242h0.039c0.248-0.357,0.602-0.608,0.932-0.813c0.496-0.271,1.018-0.429,1.805-0.429
		c1.1,0,2.72,0.531,2.72,2.67v3.632h-1.454v-3.49c0-1.195-0.594-1.888-1.797-1.888c-0.865,0-1.506,0.468-1.781,0.999l-0.122,0.562
		v3.817h-1.458v-3.684c0-1.002-0.582-1.694-1.722-1.694c-0.912,0-1.612,0.563-1.855,1.117l-0.118,0.554v3.707h-1.462V98.827
		L53.657,98.827z"/>
	<path d="M71.205,103.45c-2.217,0-3.954-1.219-3.954-3.164c0-2.061,1.823-3.271,4.088-3.271c2.358,0,3.967,1.29,3.967,3.157
		c0,2.288-2.131,3.278-4.089,3.278H71.205L71.205,103.45z M71.253,102.613c1.423,0,2.5-0.999,2.5-2.402
		c0-1.05-0.696-2.351-2.465-2.351c-1.75,0-2.521,1.223-2.521,2.386c0,1.353,1.019,2.367,2.469,2.367H71.253L71.253,102.613z"/>
	<path d="M77.613,97.164l1.619,3.444c0.268,0.569,0.491,1.077,0.66,1.584h0.056c0.181-0.507,0.424-1.015,0.695-1.584l1.604-3.444
		h1.561l-3.235,6.152h-1.427l-3.138-6.152H77.613L77.613,97.164z"/>
	<path d="M85.884,100.436c0.035,1.501,1.313,2.13,2.811,2.13c1.073,0,1.733-0.138,2.284-0.311l0.271,0.79
		c-0.531,0.178-1.451,0.397-2.764,0.397c-2.52,0-4.053-1.266-4.053-3.109c0-1.863,1.485-3.326,3.88-3.326
		c2.696,0,3.396,1.766,3.396,2.897l-0.056,0.539L85.884,100.436L85.884,100.436z M90.263,99.633c0.016-0.703-0.393-1.819-2.06-1.819
		c-1.537,0-2.182,1.037-2.3,1.819H90.263L90.263,99.633z"/>
	<path d="M93.989,103.45c-0.581,0-0.99-0.346-0.99-0.806c0-0.452,0.425-0.794,1.019-0.794c0.602,0,1.006,0.326,1.006,0.794
		c0,0.46-0.404,0.806-1.014,0.806H93.989L93.989,103.45z"/>
	<path d="M97.504,103.45c-0.57,0-0.982-0.346-0.982-0.806c0-0.452,0.429-0.794,1.021-0.794c0.598,0,1.007,0.326,1.007,0.794
		c0,0.46-0.409,0.806-1.022,0.806H97.504L97.504,103.45z"/>
	<path d="M101.03,103.45c-0.586,0-0.982-0.346-0.982-0.806c0-0.452,0.42-0.794,1.014-0.794c0.602,0,1.011,0.326,1.011,0.794
		c0,0.46-0.409,0.806-1.026,0.806H101.03L101.03,103.45z"/>
</g>
</svg>
