<?xml version="1.0" encoding="utf-8"?>
<!-- Generator: Adobe Illustrator 16.0.0, SVG Export Plug-In . SVG Version: 6.00 Build 0)  -->
<!DOCTYPE svg PUBLIC "-//W3C//DTD SVG 1.1//EN" "http://www.w3.org/Graphics/SVG/1.1/DTD/svg11.dtd">
<svg version="1.1" id="Layer_1" xmlns="http://www.w3.org/2000/svg" xmlns:xlink="http://www.w3.org/1999/xlink" x="0px" y="0px"
	 width="123px" height="107px" viewBox="0 0 123 107" enable-background="new 0 0 123 107" xml:space="preserve">
<g>
	<path fill="#D2AB67" d="M40.787,29.063c25.672-1.351,59.224,1.896,62.034,21.423c1.396,10.069-13.513,20.199-47.218,21.459
		c-10.958,0.439-24.061-0.287-39.677-2.619l-0.848,1.842C139.826,85.139,128.183,22.981,40.75,28.09
		C40.787,28.436,40.846,28.729,40.787,29.063L40.787,29.063z M94.662,40.663c0.205,0.323,0,0.127,0.205,0.483
		c-3.143,2.041-6.456,3.744-9.854,5.193c1.998,6.428,1.296,13.28,0.657,19.527c-0.252-0.051-0.304-0.29-0.854,0
		c0.497-6.566,0.248-13.048-1.462-18.892c-5.034,1.947-10.194,3.316-15.258,4.147c1.615,5.792,1.304,11.973,0.613,18.928
		c-0.263-0.059-0.263-0.291-0.851,0c0.8-6.716,0.559-12.998-1.107-18.743c-2.36,0.393-4.692,0.636-6.994,0.781
		c0.096-0.578,0.096-1.22-0.047-1.797c2.137-0.244,4.296-0.483,6.446-0.828c-1.403-4.147-3.6-7.942-6.646-11.396l0.438-0.578
		c3.858,3.835,6.209,7.696,7.607,11.726c5.101-0.82,10.366-2.048,15.302-3.697c-1.479-4.336-3.887-8.327-7.501-11.577
		c0.253-0.305,0.16-0.058,0.392-0.356c4.617,3.458,7.267,7.357,8.815,11.393C88.114,43.764,91.516,42.308,94.662,40.663
		L94.662,40.663z"/>
	
		<linearGradient id="SVGID_1_" gradientUnits="userSpaceOnUse" x1="2199.9629" y1="-2079.6655" x2="2363.041" y2="-2079.6655" gradientTransform="matrix(0 -0.3801 0.3801 0 829.575 907.3799)">
		<stop  offset="0" style="stop-color:#444F37"/>
		<stop  offset="0.06" style="stop-color:#444F37"/>
		<stop  offset="0.09" style="stop-color:#5C6848"/>
		<stop  offset="0.4" style="stop-color:#96A469"/>
		<stop  offset="0.67" style="stop-color:#ABBA71"/>
		<stop  offset="1" style="stop-color:#ADBC72"/>
	</linearGradient>
	<path fill="url(#SVGID_1_)" d="M58.099,20.748V70.3h-18.51V20.748h-4.535v-1.565h27.057v1.565H58.099L58.099,20.748z
		 M19.935,56.329h2.901v11.382h-2.901V56.329L19.935,56.329z M23.271,68.193h8.82v0.737h-8.82V68.193L23.271,68.193z M16.077,69.37
		v0.93h23.212v-0.93H16.077L16.077,69.37z M38.244,35.982h0.091c-0.592-1.762-1.991-3.018-3.855-3.897v-1.667l0.161,0.051
		l0.446-0.476c-4.096-2.28-10.75-2.237-14.864,0.051l0.212,0.425l0.292-0.138v1.863c-1.75,0.872-3.142,2.128-3.698,3.788h0.153
		C20.535,29.35,35.453,30.418,38.244,35.982L38.244,35.982z M21.134,30.189c3.749-1.66,9.112-1.515,12.916,0.036v1.616
		c-3.804-1.562-9.116-1.562-12.821,0.098v-1.75H21.134L21.134,30.189z M19.935,35.83h2.901v6.714h-2.901V35.83L19.935,35.83z
		 M32.442,35.83v6.714h2.905V35.83H32.442L32.442,35.83z M26.194,35.83h2.909v6.714h-2.909V35.83L26.194,35.83z M19.935,46.448
		h2.901v6.766h-2.901V46.448L19.935,46.448z M32.442,46.448v6.766h2.905v-6.766H32.442L32.442,46.448z M26.194,46.448h2.909v6.766
		h-2.909V46.448L26.194,46.448z M32.442,56.329v11.382h2.905V56.329H32.442L32.442,56.329z M26.194,56.329h2.909v11.382h-2.909
		V56.329L26.194,56.329z M38.738,10.906L42,11.117c3.954-3.715,9.938-3.759,13.906,0l3.292-0.211v5.411h-0.147
		c0.198,0.628,0.398,1.361,0.548,2.084h-0.15c-2.798-11.679-17.651-12.798-21.001,0h-0.205c0.153-0.723,0.3-1.456,0.548-2.084
		h-0.055V10.906L38.738,10.906z M41.642,67.965v1.162h14.114v-1.162h-5.25V51.122h-3.61v16.843H41.642L41.642,67.965z
		 M41.942,56.819v9.392h2.09v-9.392H41.942L41.942,56.819z M47.554,44.204v5.545h2.097v-5.545H47.554L47.554,44.204z M47.554,23.856
		v4.333h2.097v-4.333H47.554L47.554,23.856z M47.554,30.418v9.406h2.097v-9.406H47.554L47.554,30.418z M41.942,30.527v9.392h2.09
		v-9.392H41.942L41.942,30.527z M52.903,30.382v9.391H55v-9.391H52.903L52.903,30.382z M41.942,23.907v4.14h2.09v-4.14H41.942
		L41.942,23.907z M52.903,23.805v4.191H55v-4.191H52.903L52.903,23.805z M41.942,44.153v9.392h2.09v-9.392H41.942L41.942,44.153z
		 M52.903,44.007v9.398H55v-9.398H52.903L52.903,44.007z M52.903,56.667v9.398H55v-9.398H52.903L52.903,56.667z M51.551,20.78v0.585
		h5.542V20.78H51.551L51.551,20.78z M48.749,20.457c-1.107,0-2.002,0.291-2.002,0.628c0,0.345,0.895,0.636,2.002,0.636
		c1.097,0,2.002-0.291,2.002-0.636C50.751,20.748,49.845,20.457,48.749,20.457L48.749,20.457z M40.385,20.78v0.585h5.569V20.78
		H40.385L40.385,20.78z"/>
	<path d="M16.048,101.96v-4.797h1.754c0.387,0,0.705,0.043,0.902,0.094c0.274,0.088,0.512,0.232,0.694,0.447
		c0.205,0.217,0.354,0.469,0.468,0.788c0.113,0.279,0.161,0.687,0.161,1.126c0,0.396-0.048,0.733-0.15,1.017
		c-0.124,0.353-0.296,0.65-0.508,0.85c-0.175,0.175-0.391,0.306-0.665,0.396c-0.205,0.064-0.493,0.079-0.858,0.079H16.048
		 M17.016,101.161h0.712c0.256,0,0.46-0.015,0.563-0.058l0.391-0.196c0.103-0.087,0.194-0.251,0.252-0.461
		c0.069-0.215,0.091-0.498,0.091-0.887c0-0.355-0.022-0.643-0.091-0.831l-0.274-0.491l-0.435-0.206
		c-0.124-0.022-0.391-0.037-0.782-0.037h-0.428V101.161"/>
	<path d="M21.028,101.47c-0.227-0.323-0.333-0.72-0.333-1.228c0-0.573,0.146-1.017,0.439-1.34c0.296-0.315,0.668-0.483,1.129-0.483
		c0.511,0,0.917,0.168,1.206,0.498c0.296,0.338,0.432,0.864,0.409,1.565h-2.244c0,0.287,0.07,0.505,0.205,0.65l0.519,0.221
		l0.366-0.105l0.215-0.392l0.895,0.159c-0.102,0.338-0.3,0.593-0.548,0.774c-0.241,0.17-0.563,0.257-0.928,0.257
		C21.758,102.047,21.309,101.844,21.028,101.47 M21.839,99.335c-0.135,0.145-0.205,0.334-0.205,0.592h1.349
		c0-0.266-0.073-0.461-0.186-0.614l-0.468-0.186L21.839,99.335"/>
	<path d="M24.977,101.768c-0.27-0.196-0.431-0.465-0.522-0.78l0.917-0.146l0.223,0.407l0.497,0.148c0.227,0,0.402-0.058,0.53-0.148
		l0.109-0.232l-0.051-0.175l-0.307-0.134c-0.738-0.159-1.188-0.298-1.396-0.442c-0.285-0.186-0.398-0.447-0.398-0.785
		c0-0.301,0.103-0.563,0.354-0.751c0.23-0.222,0.573-0.31,1.07-0.31c0.479,0,0.83,0.073,1.052,0.236
		c0.223,0.145,0.391,0.377,0.468,0.68l-0.844,0.167l-0.208-0.313l-0.446-0.105c-0.234,0-0.413,0.021-0.497,0.095l-0.103,0.192
		l0.08,0.159c0.077,0.073,0.354,0.139,0.844,0.266c0.482,0.108,0.818,0.239,1.016,0.398c0.194,0.179,0.282,0.396,0.282,0.677
		c0,0.319-0.125,0.613-0.391,0.839c-0.267,0.222-0.658,0.337-1.166,0.337C25.635,102.047,25.244,101.945,24.977,101.768"/>
	<path d="M28.583,101.96v-3.468h0.899v3.468H28.583 M28.583,98.009v-0.846h0.899v0.846H28.583"/>
	<path d="M30.827,103.071c-0.251-0.196-0.357-0.446-0.357-0.763V102.2l1.044,0.13l0.11,0.244l0.402,0.115
		c0.252,0,0.42-0.043,0.541-0.115l0.183-0.226l0.04-0.417v-0.526c-0.274,0.385-0.61,0.555-1.034,0.555
		c-0.446,0-0.826-0.17-1.085-0.577c-0.215-0.31-0.325-0.704-0.325-1.173c0-0.571,0.146-1.021,0.424-1.344
		c0.267-0.302,0.617-0.447,1.034-0.447c0.41,0,0.764,0.175,1.049,0.556v-0.482h0.855v3.116c0,0.41-0.044,0.74-0.114,0.93
		l-0.281,0.489l-0.475,0.269c-0.208,0.051-0.461,0.081-0.76,0.081C31.496,103.377,31.072,103.296,30.827,103.071 M31.496,99.371
		c-0.142,0.182-0.208,0.425-0.208,0.788c0,0.367,0.066,0.653,0.208,0.799l0.508,0.276c0.227,0,0.409-0.088,0.563-0.276
		c0.142-0.175,0.237-0.432,0.237-0.777c0-0.363-0.077-0.628-0.237-0.81c-0.132-0.182-0.307-0.244-0.541-0.244
		C31.81,99.127,31.624,99.189,31.496,99.371"/>
	<path d="M36.933,101.96v-1.766c0-0.377-0.019-0.635-0.063-0.729l-0.193-0.262l-0.282-0.077l-0.427,0.12l-0.245,0.356
		c-0.066,0.142-0.073,0.41-0.073,0.784v1.572h-0.921v-3.468h0.833v0.497c0.307-0.396,0.695-0.57,1.14-0.57l0.556,0.109l0.365,0.271
		l0.172,0.39c0.043,0.146,0.059,0.363,0.059,0.628v2.143H36.933"/>
	<path d="M43.761,101.55l-0.621,0.396c-0.205,0.073-0.475,0.124-0.767,0.124c-0.588,0-1.023-0.175-1.327-0.52
		c-0.237-0.247-0.354-0.556-0.354-0.894c0-0.305,0.088-0.577,0.274-0.839c0.186-0.236,0.45-0.446,0.818-0.639l-0.369-0.556
		l-0.125-0.498c0-0.298,0.125-0.548,0.351-0.744c0.237-0.218,0.548-0.302,0.976-0.302c0.424,0,0.731,0.105,0.972,0.323
		c0.226,0.192,0.336,0.461,0.336,0.771l-0.165,0.556c-0.131,0.174-0.347,0.377-0.687,0.584l0.654,0.897
		c0.069-0.131,0.139-0.319,0.197-0.541l0.811,0.185c-0.073,0.306-0.139,0.52-0.216,0.673l-0.189,0.33l0.391,0.319l0.343,0.221
		l-0.544,0.694C44.255,101.96,44.01,101.79,43.761,101.55 M41.785,100.159l-0.165,0.476l0.201,0.498l0.508,0.17l0.406-0.068
		l0.449-0.283l-0.92-1.17C42.048,99.891,41.894,100.014,41.785,100.159 M42.292,97.827l-0.113,0.262l0.201,0.418l0.237,0.25
		l0.223-0.17l0.285-0.437l-0.139-0.309l-0.336-0.123L42.292,97.827"/>
	<path d="M47.792,101.96v-4.797h1.721c0.413,0,0.713,0.043,0.903,0.094c0.285,0.088,0.515,0.232,0.723,0.447
		c0.201,0.217,0.344,0.469,0.45,0.788c0.109,0.279,0.153,0.687,0.153,1.126c0,0.396-0.044,0.733-0.15,1.017
		c-0.109,0.353-0.296,0.65-0.511,0.85c-0.15,0.175-0.38,0.306-0.665,0.396c-0.208,0.064-0.49,0.079-0.848,0.079H47.792
		 M48.749,101.161h0.698c0.256,0,0.457-0.015,0.577-0.058l0.366-0.196c0.113-0.087,0.204-0.251,0.274-0.461
		c0.055-0.215,0.095-0.498,0.095-0.887c0-0.355-0.04-0.643-0.095-0.831l-0.282-0.491l-0.442-0.206
		c-0.121-0.022-0.388-0.037-0.778-0.037h-0.413V101.161"/>
	<path d="M52.746,101.47c-0.208-0.323-0.336-0.72-0.336-1.228c0-0.573,0.157-1.017,0.442-1.34c0.307-0.315,0.672-0.483,1.129-0.483
		c0.515,0,0.924,0.168,1.202,0.498c0.299,0.338,0.442,0.864,0.427,1.565h-2.262c0,0.287,0.066,0.505,0.212,0.65l0.526,0.221
		l0.351-0.105l0.22-0.392l0.917,0.159c-0.131,0.338-0.303,0.593-0.566,0.774c-0.249,0.17-0.556,0.257-0.946,0.257
		C53.488,102.047,53.02,101.844,52.746,101.47 M53.539,99.335c-0.125,0.145-0.176,0.334-0.176,0.592h1.345
		c0-0.266-0.073-0.461-0.197-0.614l-0.472-0.186L53.539,99.335"/>
	<polyline points="57.449,101.96 56.045,98.492 57.002,98.492 57.653,100.265 57.843,100.856 57.931,100.577 58.022,100.265 
		58.676,98.492 59.615,98.492 58.252,101.96 57.449,101.96 	"/>
	<path d="M60.371,101.47c-0.211-0.323-0.336-0.72-0.336-1.228c0-0.573,0.156-1.017,0.457-1.34c0.277-0.315,0.661-0.483,1.111-0.483
		c0.515,0,0.923,0.168,1.23,0.498c0.277,0.338,0.413,0.864,0.413,1.565h-2.276c0,0.287,0.072,0.505,0.212,0.65
		c0.139,0.152,0.314,0.221,0.526,0.221l0.358-0.105l0.223-0.392l0.906,0.159c-0.125,0.338-0.311,0.593-0.549,0.774
		c-0.264,0.17-0.566,0.257-0.95,0.257C61.109,102.047,60.668,101.844,60.371,101.47 M61.183,99.335
		c-0.14,0.145-0.202,0.334-0.202,0.592h1.346c0-0.266-0.063-0.461-0.193-0.614l-0.472-0.186L61.183,99.335"/>
	<polyline points="64.105,101.96 64.105,97.163 65.025,97.163 65.025,101.96 64.105,101.96 	"/>
	<path d="M66.731,101.844c-0.272-0.148-0.485-0.359-0.65-0.653c-0.134-0.262-0.2-0.6-0.2-1.01c0-0.313,0.066-0.6,0.2-0.883
		c0.165-0.286,0.378-0.526,0.641-0.66c0.292-0.146,0.584-0.219,0.918-0.219c0.515,0,0.96,0.168,1.289,0.498
		c0.317,0.338,0.5,0.781,0.5,1.314c0,0.519-0.183,0.944-0.521,1.311c-0.333,0.339-0.753,0.505-1.268,0.505
		C67.332,102.047,67.025,101.982,66.731,101.844 M67.043,99.443c-0.156,0.175-0.249,0.447-0.249,0.788
		c0,0.346,0.093,0.609,0.249,0.784c0.16,0.196,0.369,0.287,0.597,0.287c0.251,0,0.448-0.091,0.595-0.287
		c0.165-0.175,0.256-0.438,0.256-0.784c0-0.341-0.091-0.613-0.256-0.788c-0.146-0.196-0.344-0.294-0.595-0.294
		C67.412,99.149,67.203,99.247,67.043,99.443"/>
	<path d="M70.24,103.312v-4.819h0.848v0.497l0.456-0.402c0.18-0.131,0.388-0.168,0.619-0.168c0.386,0,0.737,0.146,1.011,0.476
		c0.271,0.31,0.417,0.744,0.417,1.315c0,0.573-0.146,1.038-0.424,1.361c-0.267,0.323-0.618,0.476-1.004,0.476l-0.53-0.115
		l-0.476-0.39v1.77H70.24 M71.37,99.415c-0.143,0.166-0.234,0.425-0.234,0.766c0,0.396,0.092,0.676,0.248,0.85
		c0.143,0.204,0.34,0.295,0.548,0.295c0.223,0,0.388-0.091,0.523-0.252c0.143-0.182,0.216-0.475,0.216-0.842
		c0-0.378-0.073-0.65-0.225-0.816c-0.149-0.189-0.316-0.272-0.536-0.272C71.705,99.143,71.508,99.226,71.37,99.415"/>
	<path d="M78.523,101.96v-1.982c0-0.339-0.033-0.563-0.099-0.665l-0.384-0.186l-0.354,0.099l-0.252,0.355
		c-0.044,0.142-0.066,0.396-0.066,0.72v1.659h-0.913v-1.881c0-0.356-0.018-0.577-0.058-0.664l-0.139-0.226l-0.289-0.063
		l-0.369,0.099l-0.248,0.334c-0.049,0.149-0.073,0.389-0.073,0.719v1.682h-0.91v-3.468h0.844v0.461
		c0.303-0.359,0.658-0.534,1.063-0.534c0.237,0,0.413,0.037,0.577,0.124l0.405,0.41l0.493-0.41l0.552-0.124
		c0.268,0,0.475,0.037,0.65,0.146l0.384,0.468c0.077,0.146,0.091,0.396,0.091,0.713v2.215H78.523"/>
	<path d="M80.526,101.47c-0.205-0.323-0.337-0.72-0.337-1.228c0-0.573,0.154-1.017,0.46-1.34c0.278-0.315,0.67-0.483,1.118-0.483
		c0.505,0,0.913,0.168,1.202,0.498c0.292,0.338,0.442,0.864,0.413,1.565h-2.266c0,0.287,0.103,0.505,0.238,0.65
		c0.124,0.152,0.289,0.221,0.508,0.221l0.357-0.105l0.212-0.392l0.921,0.159c-0.121,0.338-0.307,0.593-0.551,0.774
		c-0.268,0.17-0.563,0.257-0.955,0.257C81.253,102.047,80.832,101.844,80.526,101.47 M81.333,99.335
		c-0.146,0.145-0.189,0.334-0.189,0.592h1.348c0-0.266-0.073-0.461-0.201-0.614l-0.472-0.186L81.333,99.335"/>
	<path d="M86.481,101.96v-1.766c0-0.377-0.021-0.635-0.055-0.729l-0.201-0.262l-0.292-0.077l-0.428,0.12l-0.249,0.356
		c-0.058,0.142-0.076,0.41-0.076,0.784v1.572h-0.914v-3.468h0.855v0.497c0.296-0.396,0.669-0.57,1.122-0.57l0.559,0.109l0.365,0.271
		l0.168,0.39c0.033,0.146,0.051,0.363,0.051,0.628v2.143H86.481"/>
	<path d="M88.951,101.96l-0.281-0.207l-0.135-0.356c-0.03-0.111-0.03-0.323-0.03-0.646v-1.524h-0.428v-0.733h0.428v-0.701
		l0.899-0.534v1.235h0.617v0.733h-0.617v1.395c0,0.287,0,0.453,0.036,0.513l0.063,0.102l0.15,0.051l0.368-0.095l0.077,0.719
		c-0.216,0.094-0.445,0.138-0.709,0.138L88.951,101.96"/>
	<polyline points="92.788,101.96 92.788,97.206 93.738,97.206 93.738,101.161 96.135,101.161 96.135,101.96 92.788,101.96 	"/>
	<path d="M97.417,101.96l-0.281-0.207l-0.132-0.356c-0.007-0.111-0.029-0.323-0.029-0.646v-1.524h-0.405v-0.733h0.405v-0.701
		l0.921-0.534v1.235h0.621v0.733h-0.621v1.395c0,0.287,0,0.453,0.021,0.513l0.08,0.102l0.143,0.051l0.352-0.095l0.096,0.719
		c-0.224,0.094-0.468,0.138-0.735,0.138L97.417,101.96"/>
	<path d="M99.471,101.571c-0.264-0.323-0.398-0.788-0.398-1.34c0-0.613,0.135-1.053,0.398-1.365c0.274-0.302,0.61-0.447,1.034-0.447
		c0.379,0,0.724,0.168,0.979,0.483v-1.739h0.928v4.797h-0.847v-0.49l-0.498,0.439l-0.584,0.138
		C100.091,102.047,99.766,101.895,99.471,101.571 M100.209,99.371c-0.146,0.182-0.22,0.425-0.22,0.788
		c0,0.367,0.055,0.624,0.153,0.799c0.153,0.232,0.34,0.367,0.607,0.367c0.223,0,0.387-0.091,0.559-0.272
		c0.123-0.182,0.196-0.454,0.196-0.811c0-0.402-0.073-0.689-0.196-0.856c-0.14-0.182-0.336-0.259-0.559-0.259
		C100.541,99.127,100.362,99.189,100.209,99.371"/>
	<polyline points="103.438,101.96 103.438,101.053 104.352,101.053 104.352,101.96 103.438,101.96 	"/>
	<path fill="#F5B721" d="M29.881,84.794l-6.588-0.008h-5.872h-0.712h-0.468h-0.512l-0.796,4.572h14.034
		c1.695-0.007,2.335-1.274,2.536-2.335l0.051-0.577c0-0.455-0.106-0.868-0.348-1.155C30.98,85.001,30.597,84.809,29.881,84.794"/>
	<path fill="#00984A" d="M102.832,80.443l-0.007,0.036l-1.646,9.508h-3.555c-0.599,0-0.932-0.167-1.366-0.6
		c-0.34-0.374-0.365-0.835-0.264-1.413l1.305-7.495v-0.036h-2.094l-0.007,0.036l-1.338,7.681c-0.196,1.134-0.087,2.03,0.688,2.778
		c0.613,0.592,1.268,0.759,2.404,0.759h3.917v0.015l-0.044,0.214c-0.073,0.425-0.176,0.753-0.501,1.067
		c-0.424,0.396-0.854,0.425-1.384,0.425h-5.989l-0.303,1.733h6.784c0.899,0,1.769-0.287,2.507-1.068
		c0.603-0.636,0.822-1.191,0.968-1.99l0.066-0.381l0.132-0.767l1.819-10.502H102.832L102.832,80.443z M84.369,88.284
		c0.193-1.155,0.896-1.696,2.27-1.696h3.599h2.737l0.39-2.248c0.191-1.141,0.352-2.005-0.256-2.858
		c-0.35-0.512-0.897-0.9-1.64-1.002l-0.405-0.036H79.726v0.036l-1.658,9.508h-4.4l1.656-9.508l0.007-0.036h-2.104l-0.007,0.036
		l-1.648,9.508h-1.659c-0.895,0-1.604,0-2.094-0.665c-0.387-0.49-0.332-1.184-0.193-1.968l1.194-6.875v-0.036h-6.196l0.76-4.344
		h-2.101l-0.756,4.344h-9.588c-0.201,0-0.405,0.014-0.596,0.036c-2.294,0.21-3.317,1.652-3.599,3.254
		c-0.299,1.718,0.325,3.29,3.062,3.29h2.693c0.383,0,1.787,0.105,1.553,1.471c-0.245,1.384-1.684,1.493-2.079,1.493H40.604
		c-0.891,0-1.549-0.146-2.068-0.811c-0.46-0.624-0.563-1.224-0.409-2.07l0.051-0.287h6.85l0.296-1.717h-6.851l0.048-0.272
		c0.135-0.767,0.687-1.464,1.337-1.969c0.49-0.341,1.187-0.693,2.101-0.693h3.892l0.295-1.688v-0.036h-3.869
		c-0.223,0-0.435,0.014-0.639,0.036c-3.117,0.287-5.222,2.705-5.722,5.589c-0.522,3.04,0.449,5.629,4.414,5.629h12.412
		c1.83,0,3.266-1.198,3.631-3.291c0.358-2.105-0.658-3.304-2.484-3.304h-3.409c-0.406,0-1.579-0.095-1.327-1.471
		c0.23-1.391,1.429-1.464,1.841-1.464h9.229l-1.271,7.321c-0.121,0.701,0.179,1.318,0.46,1.631c0.288,0.353,0.709,0.577,1.279,0.577
		h3.299l0.3-1.71h-2.247c-0.339,0-0.563-0.109-0.73-0.331c-0.161-0.232-0.205-0.465-0.161-0.773l1.181-6.715h4.085l-0.939,5.451
		c-0.209,1.249-0.299,2.171,0.401,3.061c0.717,0.923,1.663,1.018,2.908,1.018h11.078l1.659-9.529h8.079c0.552,0,1.085,0,1.392,0.425
		c0.392,0.563,0.369,1.169,0.233,1.946l-0.051,0.313h-4.838c-2.294,0-3.909,1.181-4.308,3.433c-0.39,2.243,0.819,3.413,3.125,3.413
		h6.927l0.3-1.71h-6.28C84.676,89.987,84.165,89.424,84.369,88.284 M31.339,75.603h-8.451L22.533,77.6h2.846l0.008-0.012h5.177
		c2.141,0,2.536,0.996,2.287,2.444l-0.095,0.447c-0.344,1.19-1.133,1.997-3.051,1.997h-6.263h-2.806l-0.234,1.308l-0.106,0.65h2.997
		v0.014h6.588c1.921,0,2.174,1.479,1.966,2.637c-0.198,1.141-0.969,2.623-2.879,2.623h-5.674v0.007h-6.391l-0.343,1.982h11.674
		c3.409,0,5.663-1.358,6.204-4.467c0.391-2.251-0.709-3.188-1.962-3.766c1.406-0.668,2.305-1.472,2.747-2.985
		c0.059-0.232,0.125-0.468,0.172-0.744C35.811,77.32,34.474,75.603,31.339,75.603"/>
	<path fill="#F5B721" d="M90.812,86.951h-0.574l-3.599-0.008c-0.64,0-1.085,0.128-1.366,0.345c-0.282,0.226-0.457,0.549-0.56,1.054
		l-0.044,0.381c0.007,0.342,0.103,0.505,0.285,0.65c0.196,0.153,0.573,0.255,1.151,0.255h4.132h0.103h2.104h0.007l0.461-2.663
		v-0.007L90.812,86.951L90.812,86.951z"/>
	<path fill="#F5B721" d="M32.555,79.325c0-0.44-0.143-0.778-0.376-0.974l0,0c-0.274-0.236-0.767-0.396-1.6-0.403h-0.003
		l-0.026,0.007h-7.136v0.007h-3.435l-0.713,4.148h2.945v-0.015h7.494c1.02,0,1.648-0.24,2.05-0.585
		c0.402-0.359,0.628-0.879,0.742-1.536l0.047-0.403l0.011-0.021V79.325L32.555,79.325z"/>
</g>
</svg>
