<?xml version="1.0" encoding="utf-8"?>
<!-- Generator: Adobe Illustrator 16.0.0, SVG Export Plug-In . SVG Version: 6.00 Build 0)  -->
<!DOCTYPE svg PUBLIC "-//W3C//DTD SVG 1.1//EN" "http://www.w3.org/Graphics/SVG/1.1/DTD/svg11.dtd">
<svg version="1.1" id="Layer_1" xmlns="http://www.w3.org/2000/svg" xmlns:xlink="http://www.w3.org/1999/xlink" x="0px" y="0px"
	 width="123px" height="107px" viewBox="0 0 123 107" enable-background="new 0 0 123 107" xml:space="preserve">
<g>
	<path fill="#5F8239" d="M43.347,70.209c0.846,0.316,1.267,0.914,1.267,1.781c0,0.693-0.244,1.23-0.738,1.625
		c-0.25,0.191-0.54,0.332-0.869,0.424c-0.329,0.084-0.74,0.131-1.224,0.131h-5.151v-0.178c0.134-0.041,0.227-0.088,0.28-0.145
		c0.054-0.066,0.075-0.146,0.075-0.258v-6.404c0-0.117-0.021-0.203-0.075-0.26c-0.054-0.061-0.146-0.107-0.28-0.144v-0.177h5.103
		c0.488,0,0.884,0.035,1.185,0.105c0.293,0.076,0.553,0.205,0.779,0.383c0.445,0.347,0.671,0.854,0.671,1.516
		C44.37,69.346,44.025,69.877,43.347,70.209z M38.635,69.612h2.887c0.435,0,0.74-0.062,0.915-0.195
		c0.19-0.149,0.288-0.372,0.288-0.684c0-0.321-0.087-0.548-0.272-0.684c-0.185-0.134-0.496-0.2-0.931-0.2h-2.887V69.612z
		 M38.635,72.92h2.789c0.519,0,0.895-0.07,1.123-0.215c0.26-0.168,0.394-0.439,0.394-0.813c0-0.379-0.134-0.648-0.394-0.82
		c-0.226-0.145-0.599-0.211-1.123-0.211h-2.789V72.92z"/>
	<path fill="#5F8239" d="M47.439,71.529v1.512h3.925c0.116,0,0.203-0.025,0.262-0.068c0.059-0.057,0.11-0.15,0.146-0.289h0.149
		v1.838h-0.149c-0.031-0.131-0.082-0.219-0.142-0.275c-0.064-0.051-0.151-0.076-0.267-0.076h-5.755v-0.156
		c0.128-0.031,0.221-0.082,0.275-0.145c0.051-0.066,0.077-0.152,0.077-0.266v-5.081c0-0.11-0.025-0.198-0.077-0.259
		c-0.052-0.057-0.142-0.105-0.275-0.146v-0.154h5.583c0.118,0,0.206-0.026,0.268-0.078c0.059-0.057,0.11-0.146,0.149-0.279h0.149
		v1.832h-0.149c-0.039-0.133-0.09-0.224-0.149-0.275c-0.062-0.051-0.149-0.076-0.268-0.076h-3.753v1.361h2.332
		c0.116,0,0.198-0.025,0.26-0.074c0.062-0.051,0.113-0.145,0.154-0.277h0.149v1.787h-0.149c-0.039-0.127-0.09-0.219-0.152-0.275
		c-0.059-0.051-0.146-0.078-0.262-0.078H47.439z"/>
	<path fill="#5F8239" d="M58.801,68.522l-0.746,1.447l-0.134-0.071c0-0.124-0.039-0.222-0.113-0.291
		c-0.208-0.19-0.517-0.345-0.928-0.465c-0.409-0.124-0.822-0.186-1.244-0.186c-0.352,0-0.671,0.051-0.948,0.154
		c-0.398,0.145-0.597,0.352-0.597,0.622c0,0.18,0.098,0.312,0.291,0.388c0.19,0.072,0.561,0.135,1.11,0.176l0.872,0.072
		c0.761,0.053,1.337,0.201,1.735,0.436c0.219,0.135,0.398,0.318,0.545,0.537c0.182,0.275,0.27,0.586,0.27,0.934
		c0,0.635-0.28,1.133-0.848,1.496c-0.537,0.352-1.272,0.531-2.195,0.531c-0.928,0-1.83-0.197-2.696-0.596
		c-0.062-0.025-0.11-0.041-0.154-0.041c-0.064,0-0.136,0.047-0.195,0.131l-0.144-0.051l0.638-1.52l0.136,0.059v0.041
		c0,0.098,0.036,0.176,0.108,0.248c0.188,0.162,0.509,0.305,0.956,0.422c0.453,0.117,0.9,0.184,1.337,0.184
		c0.396,0,0.745-0.057,1.051-0.158c0.385-0.127,0.576-0.332,0.576-0.613c0-0.223-0.131-0.383-0.398-0.469
		c-0.177-0.061-0.494-0.105-0.951-0.146l-0.869-0.078c-0.468-0.031-0.825-0.082-1.069-0.145c-0.247-0.057-0.465-0.141-0.648-0.254
		c-0.234-0.154-0.419-0.352-0.55-0.605c-0.134-0.258-0.195-0.533-0.195-0.839c0-0.679,0.285-1.195,0.869-1.558
		c0.53-0.326,1.183-0.486,1.964-0.486c0.419,0,0.815,0.047,1.18,0.145c0.373,0.092,0.807,0.26,1.316,0.496
		c0.146,0.064,0.254,0.105,0.311,0.105c0.056,0,0.133-0.041,0.226-0.126L58.801,68.522z"/>
	<path fill="#5F8239" d="M63.324,69.086V73.6c0,0.113,0.025,0.197,0.074,0.264c0.055,0.057,0.145,0.109,0.281,0.15v0.156h-2.188
		v-0.156c0.129-0.031,0.222-0.082,0.275-0.145c0.049-0.066,0.079-0.152,0.079-0.266v-4.518h-1.819c-0.116,0-0.208,0.025-0.268,0.082
		c-0.062,0.051-0.11,0.141-0.151,0.27h-0.144v-1.832h0.144c0.036,0.133,0.079,0.223,0.142,0.274
		c0.066,0.052,0.154,0.083,0.272,0.083h5.125c0.117,0,0.209-0.026,0.27-0.078c0.061-0.057,0.109-0.146,0.141-0.279h0.154v1.832
		h-0.154c-0.031-0.129-0.08-0.219-0.141-0.27c-0.061-0.057-0.152-0.082-0.27-0.082H63.324z"/>
	<path fill="#5F8239" d="M71.213,69.857l-1.35,3.375c-0.066,0.162-0.102,0.301-0.102,0.408c0,0.207,0.121,0.332,0.361,0.377v0.152
		h-2.301v-0.152c0.225-0.051,0.334-0.18,0.334-0.377c0-0.098-0.035-0.236-0.098-0.408l-1.639-4.234
		c-0.121-0.326-0.227-0.539-0.318-0.647c-0.086-0.113-0.211-0.19-0.389-0.233v-0.154h2.352v0.154
		c-0.229,0.074-0.342,0.188-0.342,0.352c0,0.069,0.035,0.208,0.107,0.398l1.168,2.93l1.15-2.909
		c0.072-0.175,0.105-0.309,0.105-0.398c0-0.19-0.123-0.309-0.371-0.372v-0.154h2.752v0.154c-0.238,0.079-0.363,0.207-0.363,0.387
		c0,0.086,0.035,0.203,0.098,0.363l1.129,2.93l1.127-2.955c0.045-0.135,0.072-0.247,0.072-0.342c0-0.108-0.029-0.186-0.078-0.242
		c-0.051-0.057-0.145-0.1-0.283-0.141v-0.154h2.406v0.154c-0.178,0.063-0.309,0.15-0.396,0.254
		c-0.078,0.098-0.182,0.306-0.311,0.627l-1.652,4.234c-0.063,0.146-0.09,0.279-0.09,0.398c0,0.217,0.125,0.342,0.375,0.387v0.152
		H72.27v-0.152c0.236-0.066,0.352-0.205,0.352-0.402c0-0.053-0.035-0.18-0.117-0.383L71.213,69.857z"/>
	<path fill="#5F8239" d="M81.246,72.619H78.4l-0.316,0.67c-0.08,0.166-0.117,0.295-0.117,0.387c0,0.172,0.117,0.291,0.352,0.338
		v0.156h-2.27v-0.156c0.141-0.021,0.244-0.066,0.309-0.129c0.072-0.063,0.148-0.188,0.24-0.373l2.258-4.586
		c0.088-0.177,0.129-0.326,0.129-0.457c0-0.145-0.104-0.268-0.309-0.352v-0.154h2.398v0.154c-0.199,0.079-0.305,0.207-0.305,0.377
		c0,0.121,0.045,0.275,0.137,0.447l2.342,4.447c0.129,0.242,0.232,0.398,0.307,0.475c0.072,0.068,0.184,0.119,0.338,0.15v0.156
		h-2.529v-0.156c0.24-0.041,0.361-0.15,0.361-0.338c0-0.113-0.047-0.256-0.139-0.428L81.246,72.619z M80.799,71.752l-1.014-1.998
		l-0.955,1.998H80.799z"/>
	<path fill="#5F8239" d="M87.25,71.445v2.158c0,0.113,0.023,0.199,0.08,0.26c0.049,0.063,0.137,0.119,0.273,0.154v0.152h-2.188
		v-0.152c0.131-0.035,0.223-0.086,0.277-0.143c0.057-0.063,0.076-0.152,0.076-0.271v-2.158l-1.83-2.529
		c-0.211-0.285-0.369-0.483-0.496-0.586c-0.117-0.108-0.268-0.172-0.434-0.213v-0.154h2.783v0.154
		c-0.242,0.063-0.363,0.172-0.363,0.342c0,0.074,0.086,0.238,0.264,0.482l0.895,1.246l0.875-1.246
		c0.176-0.249,0.26-0.408,0.26-0.493c0-0.154-0.115-0.268-0.354-0.331v-0.154h2.646v0.154c-0.172,0.041-0.318,0.104-0.441,0.213
		c-0.121,0.103-0.291,0.301-0.494,0.586L87.25,71.445z"/>
	
		<linearGradient id="SVGID_1_" gradientUnits="userSpaceOnUse" x1="-418.4756" y1="456.5791" x2="-415.8734" y2="456.5791" gradientTransform="matrix(6.0855 5.454 5.454 -6.0855 84.5658 5105.4453)">
		<stop  offset="0" style="stop-color:#C3CF2F"/>
		<stop  offset="0.1807" style="stop-color:#B5C332"/>
		<stop  offset="0.4946" style="stop-color:#96AA37"/>
		<stop  offset="0.9017" style="stop-color:#6A8939"/>
		<stop  offset="1" style="stop-color:#5F8139"/>
	</linearGradient>
	<path fill="url(#SVGID_1_)" d="M24.379,77.076c0,0-22.353-18.028,10.033-20.835c32.393-2.819,52.494-2.794,52.494-2.794
		s-53.039-3.252-72.451,2.459C-3.225,61.104,1.621,70.955,24.379,77.076z"/>
	
		<linearGradient id="SVGID_2_" gradientUnits="userSpaceOnUse" x1="-418.4629" y1="456.8633" x2="-415.8613" y2="456.8633" gradientTransform="matrix(6.0855 5.454 5.454 -6.0855 85.6517 5104.3242)">
		<stop  offset="0" style="stop-color:#C3CF2F"/>
		<stop  offset="0.1807" style="stop-color:#B5C332"/>
		<stop  offset="0.4946" style="stop-color:#96AA37"/>
		<stop  offset="0.9017" style="stop-color:#6A8939"/>
		<stop  offset="1" style="stop-color:#5F8139"/>
	</linearGradient>
	<path fill="url(#SVGID_2_)" d="M27.778,77.193c0,0-13.202-11.855-2.578-16.027c10.631-4.172,35.246-5.778,44.078-6.244
		c8.832-0.465,18.289-0.439,18.289-0.439s-25.735,1.743-44.05,4.984C25.2,62.713,21.236,64.826,27.778,77.193z"/>
	
		<linearGradient id="SVGID_3_" gradientUnits="userSpaceOnUse" x1="-418.4321" y1="456.8965" x2="-415.8304" y2="456.8965" gradientTransform="matrix(6.0855 5.454 5.454 -6.0855 86.0502 5104.1055)">
		<stop  offset="0" style="stop-color:#C3CF2F"/>
		<stop  offset="0.1807" style="stop-color:#B5C332"/>
		<stop  offset="0.4946" style="stop-color:#96AA37"/>
		<stop  offset="0.9017" style="stop-color:#6A8939"/>
		<stop  offset="1" style="stop-color:#5F8139"/>
	</linearGradient>
	<path fill="url(#SVGID_3_)" d="M31.302,77.523c0,0-9.344-8.677,0.211-12.713c9.513-4.018,31.397-6.596,39.405-7.454
		c8-0.851,16.93-1.663,16.93-1.663s-22.793,2.553-39.787,6.32C34.577,65.001,24.67,66.736,31.302,77.523z"/>
	
		<linearGradient id="SVGID_4_" gradientUnits="userSpaceOnUse" x1="-534.5747" y1="408.3438" x2="-531.9713" y2="408.3438" gradientTransform="matrix(2.9084 3.8697 3.8697 -2.9084 26.1783 3284.9915)">
		<stop  offset="0" style="stop-color:#FDEC0A"/>
		<stop  offset="0.072" style="stop-color:#FCE30C"/>
		<stop  offset="0.2005" style="stop-color:#FBCE10"/>
		<stop  offset="0.2637" style="stop-color:#FAC213"/>
		<stop  offset="0.3619" style="stop-color:#F1C419"/>
		<stop  offset="0.5375" style="stop-color:#D8CB26"/>
		<stop  offset="0.6593" style="stop-color:#C3CF2F"/>
		<stop  offset="0.7209" style="stop-color:#B5C332"/>
		<stop  offset="0.8278" style="stop-color:#96AA37"/>
		<stop  offset="0.9665" style="stop-color:#6A8939"/>
		<stop  offset="1" style="stop-color:#5F8139"/>
	</linearGradient>
	<path fill="url(#SVGID_4_)" d="M46.421,30.814c0,0,0.784-1.236,5.29-1.787c4.514-0.552,5.881,0.357,5.881,0.357
		s1.142-1.018-0.126-1.437c-1.257-0.416-3.992-0.401-7.205,0.118C47.043,28.593,46.753,29.547,46.421,30.814z"/>
	
		<linearGradient id="SVGID_5_" gradientUnits="userSpaceOnUse" x1="-534.8945" y1="408.0342" x2="-532.2883" y2="408.0342" gradientTransform="matrix(2.9081 3.8692 3.8692 -2.9081 25.2102 3284.4912)">
		<stop  offset="0" style="stop-color:#FDEC0A"/>
		<stop  offset="0.072" style="stop-color:#FCE30C"/>
		<stop  offset="0.2005" style="stop-color:#FBCE10"/>
		<stop  offset="0.2637" style="stop-color:#FAC213"/>
		<stop  offset="0.3619" style="stop-color:#F1C419"/>
		<stop  offset="0.5375" style="stop-color:#D8CB26"/>
		<stop  offset="0.6593" style="stop-color:#C3CF2F"/>
		<stop  offset="0.7209" style="stop-color:#B5C332"/>
		<stop  offset="0.8278" style="stop-color:#96AA37"/>
		<stop  offset="0.9665" style="stop-color:#6A8939"/>
		<stop  offset="1" style="stop-color:#5F8139"/>
	</linearGradient>
	<path fill="url(#SVGID_5_)" d="M50.565,42.618c0,0,0.972-4.462,5.907-5.432c5.796-1.133,8.925,2.236,8.925,2.236
		s-1.518-3.105-5.291-4.074C57.598,34.703,51.555,35.009,50.565,42.618z"/>
	
		<linearGradient id="SVGID_6_" gradientUnits="userSpaceOnUse" x1="-534.8784" y1="406.3301" x2="-532.2759" y2="406.3301" gradientTransform="matrix(2.9082 3.8693 3.8693 -2.9082 21.5482 3287.3152)">
		<stop  offset="0" style="stop-color:#FDEC0A"/>
		<stop  offset="0.072" style="stop-color:#FCE30C"/>
		<stop  offset="0.2005" style="stop-color:#FBCE10"/>
		<stop  offset="0.2637" style="stop-color:#FAC213"/>
		<stop  offset="0.3619" style="stop-color:#F1C419"/>
		<stop  offset="0.5375" style="stop-color:#D8CB26"/>
		<stop  offset="0.6593" style="stop-color:#C3CF2F"/>
		<stop  offset="0.7209" style="stop-color:#B5C332"/>
		<stop  offset="0.8278" style="stop-color:#96AA37"/>
		<stop  offset="0.9665" style="stop-color:#6A8939"/>
		<stop  offset="1" style="stop-color:#5F8139"/>
	</linearGradient>
	<path fill="url(#SVGID_6_)" d="M46.778,35.806c0,0-4.701,0.419-8.452,1.278c-3.745,0.858-4.395,1.465-4.681,2.737
		c-0.288,1.265-0.103,1.576-0.103,1.576s0.021-2.21,2.961-3.221c2.943-1.015,10.328-1.817,10.328-1.817L46.778,35.806z"/>
	
		<linearGradient id="SVGID_7_" gradientUnits="userSpaceOnUse" x1="-534.9653" y1="406.3359" x2="-532.3575" y2="406.3359" gradientTransform="matrix(2.908 3.869 3.869 -2.908 21.7116 3286.8435)">
		<stop  offset="0" style="stop-color:#FDEC0A"/>
		<stop  offset="0.072" style="stop-color:#FCE30C"/>
		<stop  offset="0.2005" style="stop-color:#FBCE10"/>
		<stop  offset="0.2637" style="stop-color:#FAC213"/>
		<stop  offset="0.3619" style="stop-color:#F1C419"/>
		<stop  offset="0.5375" style="stop-color:#D8CB26"/>
		<stop  offset="0.6593" style="stop-color:#C3CF2F"/>
		<stop  offset="0.7209" style="stop-color:#B5C332"/>
		<stop  offset="0.8278" style="stop-color:#96AA37"/>
		<stop  offset="0.9665" style="stop-color:#6A8939"/>
		<stop  offset="1" style="stop-color:#5F8139"/>
	</linearGradient>
	<path fill="url(#SVGID_7_)" d="M50.439,43.389c0,0,0.028,1.087,0.043,1.75c0.016,0.671,0.208,1.506,0.208,1.506
		s-1.843,0.118-3.761,0.195c-1.917,0.079-3.843-0.021-3.843-0.021s-0.069-3.084-1.709-4.694c-1.645-1.606-2.447-1.658-3.396-1.817
		c-0.941-0.146-2.332,0.201-2.332,0.201s2.175-1.324,4.843-0.098c3.352,1.542,3.627,5.591,3.627,5.591s0.851,0.128,2.938,0.046
		c2.095-0.087,2.599-0.18,2.599-0.18S49.65,43.864,50.439,43.389z"/>
	
		<linearGradient id="SVGID_8_" gradientUnits="userSpaceOnUse" x1="-534.7813" y1="407.2031" x2="-532.1698" y2="407.2031" gradientTransform="matrix(2.9082 3.8693 3.8693 -2.9082 24.2748 3285.6516)">
		<stop  offset="0" style="stop-color:#FDEC0A"/>
		<stop  offset="0.072" style="stop-color:#FCE30C"/>
		<stop  offset="0.2005" style="stop-color:#FBCE10"/>
		<stop  offset="0.2637" style="stop-color:#FAC213"/>
		<stop  offset="0.3619" style="stop-color:#F1C419"/>
		<stop  offset="0.5375" style="stop-color:#D8CB26"/>
		<stop  offset="0.6593" style="stop-color:#C3CF2F"/>
		<stop  offset="0.7209" style="stop-color:#B5C332"/>
		<stop  offset="0.8278" style="stop-color:#96AA37"/>
		<stop  offset="0.9665" style="stop-color:#6A8939"/>
		<stop  offset="1" style="stop-color:#5F8139"/>
	</linearGradient>
	<path fill="url(#SVGID_8_)" d="M47.768,30.349c0,0-0.899,3.416-0.64,6.948c0.252,3.54,0.65,3.984,1.488,4.063
		c0.838,0.087,1.671-0.28,1.671-0.28s-0.899,1.133-2.755,0.755C45.676,41.463,46.383,32.341,47.768,30.349z"/>
	
		<linearGradient id="SVGID_9_" gradientUnits="userSpaceOnUse" x1="-534.6685" y1="408.4473" x2="-532.0515" y2="408.4473" gradientTransform="matrix(2.9082 3.8693 3.8693 -2.9082 27.9935 3283.3074)">
		<stop  offset="0" style="stop-color:#FDEC0A"/>
		<stop  offset="0.072" style="stop-color:#FCE30C"/>
		<stop  offset="0.2005" style="stop-color:#FBCE10"/>
		<stop  offset="0.2637" style="stop-color:#FAC213"/>
		<stop  offset="0.3619" style="stop-color:#F1C419"/>
		<stop  offset="0.5375" style="stop-color:#D8CB26"/>
		<stop  offset="0.6593" style="stop-color:#C3CF2F"/>
		<stop  offset="0.7209" style="stop-color:#B5C332"/>
		<stop  offset="0.8278" style="stop-color:#96AA37"/>
		<stop  offset="0.9665" style="stop-color:#6A8939"/>
		<stop  offset="1" style="stop-color:#5F8139"/>
	</linearGradient>
	<path fill="url(#SVGID_9_)" d="M57.382,29.629c0,0,0.375,0.89,0.517,2.288c0.139,1.337,0.277,1.512-0.013,2.889
		c0,0,0.712-1.128,0.611-2.323C58.369,30.901,57.844,30.141,57.382,29.629z"/>
	
		<linearGradient id="SVGID_10_" gradientUnits="userSpaceOnUse" x1="-534.9434" y1="407.623" x2="-532.3322" y2="407.623" gradientTransform="matrix(2.908 3.869 3.869 -2.908 25.0006 3284.4851)">
		<stop  offset="0" style="stop-color:#FDEC0A"/>
		<stop  offset="0.072" style="stop-color:#FCE30C"/>
		<stop  offset="0.2005" style="stop-color:#FBCE10"/>
		<stop  offset="0.2637" style="stop-color:#FAC213"/>
		<stop  offset="0.3619" style="stop-color:#F1C419"/>
		<stop  offset="0.5375" style="stop-color:#D8CB26"/>
		<stop  offset="0.6593" style="stop-color:#C3CF2F"/>
		<stop  offset="0.7209" style="stop-color:#B5C332"/>
		<stop  offset="0.8278" style="stop-color:#96AA37"/>
		<stop  offset="0.9665" style="stop-color:#6A8939"/>
		<stop  offset="1" style="stop-color:#5F8139"/>
	</linearGradient>
	<path fill="url(#SVGID_10_)" d="M57.909,37.726c-3.92,0.087-7.02,3.349-6.927,7.292c0.082,3.935,3.336,7.051,7.256,6.958
		c3.915-0.092,7.022-3.354,6.93-7.292C65.078,40.754,61.832,37.633,57.909,37.726z M58.171,49.229
		c-2.403,0.057-4.403-1.858-4.46-4.277c-0.051-2.421,1.854-4.421,4.262-4.478c2.403-0.057,4.406,1.858,4.46,4.272
		C62.482,47.172,60.58,49.172,58.171,49.229z"/>
	
		<linearGradient id="SVGID_11_" gradientUnits="userSpaceOnUse" x1="-534.5938" y1="405.2168" x2="-531.9835" y2="405.2168" gradientTransform="matrix(2.9081 3.8692 3.8692 -2.9081 20.2102 3289.3584)">
		<stop  offset="0" style="stop-color:#FDEC0A"/>
		<stop  offset="0.072" style="stop-color:#FCE30C"/>
		<stop  offset="0.2005" style="stop-color:#FBCE10"/>
		<stop  offset="0.2637" style="stop-color:#FAC213"/>
		<stop  offset="0.3619" style="stop-color:#F1C419"/>
		<stop  offset="0.5375" style="stop-color:#D8CB26"/>
		<stop  offset="0.6593" style="stop-color:#C3CF2F"/>
		<stop  offset="0.7209" style="stop-color:#B5C332"/>
		<stop  offset="0.8278" style="stop-color:#96AA37"/>
		<stop  offset="0.9665" style="stop-color:#6A8939"/>
		<stop  offset="1" style="stop-color:#5F8139"/>
	</linearGradient>
	<path fill="url(#SVGID_11_)" d="M36.618,41.402c-3.033,0.067-5.437,2.593-5.367,5.642c0.072,3.044,2.588,5.46,5.619,5.388
		c3.036-0.072,5.434-2.594,5.367-5.643C42.17,43.746,39.651,41.333,36.618,41.402z M36.818,50.205
		c-1.812,0.041-3.308-1.396-3.352-3.218c-0.042-1.812,1.388-3.318,3.203-3.365c1.81-0.043,3.313,1.401,3.352,3.213
		C40.062,48.658,38.633,50.164,36.818,50.205z"/>
	
		<linearGradient id="SVGID_12_" gradientUnits="userSpaceOnUse" x1="-534.6328" y1="407.7637" x2="-532.0345" y2="407.7637" gradientTransform="matrix(2.9081 3.8692 3.8692 -2.9081 26.1321 3284.7754)">
		<stop  offset="0" style="stop-color:#FDEC0A"/>
		<stop  offset="0.072" style="stop-color:#FCE30C"/>
		<stop  offset="0.2005" style="stop-color:#FBCE10"/>
		<stop  offset="0.2637" style="stop-color:#FAC213"/>
		<stop  offset="0.3619" style="stop-color:#F1C419"/>
		<stop  offset="0.5375" style="stop-color:#D8CB26"/>
		<stop  offset="0.6593" style="stop-color:#C3CF2F"/>
		<stop  offset="0.7209" style="stop-color:#B5C332"/>
		<stop  offset="0.8278" style="stop-color:#96AA37"/>
		<stop  offset="0.9665" style="stop-color:#6A8939"/>
		<stop  offset="1" style="stop-color:#5F8139"/>
	</linearGradient>
	<path fill="url(#SVGID_12_)" d="M56.862,33.377c0,0-2.897,0.072-5.514,0.964c-2.614,0.889-3.581,1.588-3.581,1.588
		s1.283-1.756,4.275-2.511C55.335,32.58,56.472,32.973,56.862,33.377z"/>
	
		<linearGradient id="SVGID_13_" gradientUnits="userSpaceOnUse" x1="-378.2065" y1="322.2344" x2="-375.5895" y2="322.2344" gradientTransform="matrix(0.2359 7.786 7.786 -0.2359 -2398.6863 3041.0176)">
		<stop  offset="0" style="stop-color:#FFD108"/>
		<stop  offset="0.2159" style="stop-color:#FDC90F"/>
		<stop  offset="0.5832" style="stop-color:#F8B519"/>
		<stop  offset="1" style="stop-color:#F29A1F"/>
	</linearGradient>
	<path fill="url(#SVGID_13_)" d="M26.516,28.775H16.249c-0.208,0.296-0.403,0.62-0.56,0.946h11.392
		C26.922,29.395,26.731,29.071,26.516,28.775z M15.499,34.827h11.768c0.118-0.301,0.219-0.617,0.291-0.943H15.208
		C15.283,34.209,15.38,34.526,15.499,34.827z M16.501,36.531h9.763c0.247-0.291,0.458-0.607,0.648-0.943H15.856
		C16.043,35.924,16.254,36.24,16.501,36.531z M27.708,32.176H15.062c-0.005,0.113-0.005,0.211-0.005,0.316
		c0,0.216,0.005,0.429,0.031,0.64h12.595c0.021-0.21,0.031-0.424,0.031-0.64C27.713,32.387,27.708,32.29,27.708,32.176z
		 M21.385,38.844c1.583,0,3.036-0.581,4.146-1.558h-8.295C18.344,38.263,19.796,38.844,21.385,38.844z M27.384,30.482H15.386
		c-0.103,0.301-0.183,0.622-0.242,0.943h12.477C27.569,31.104,27.49,30.783,27.384,30.482z M21.385,26.136
		c-1.761,0-3.352,0.725-4.493,1.889h8.986C24.732,26.861,23.141,26.136,21.385,26.136z"/>
	<path fill="#F5A31E" d="M35.43,78.664h-2.154l-0.321,0.668c-0.041,0.092-0.062,0.164-0.062,0.215c0,0.109,0.074,0.178,0.229,0.219
		v0.107h-1.565v-0.107c0.093-0.025,0.165-0.051,0.211-0.1c0.049-0.047,0.105-0.139,0.167-0.273l1.743-3.654
		c0.057-0.119,0.08-0.209,0.08-0.275c0-0.107-0.064-0.186-0.198-0.236v-0.105h1.676v0.105c-0.137,0.047-0.206,0.113-0.206,0.211
		c0,0.066,0.026,0.145,0.069,0.229l1.802,3.666c0.077,0.154,0.144,0.256,0.203,0.318c0.059,0.055,0.136,0.09,0.234,0.115v0.107
		h-1.748v-0.107c0.157-0.031,0.234-0.1,0.234-0.219c0-0.051-0.023-0.117-0.067-0.215L35.43,78.664z M35.129,78.01l-0.769-1.688
		l-0.779,1.688H35.129z"/>
	<path fill="#F5A31E" d="M40.884,78.367h-0.889c-0.069,0-0.124,0.021-0.165,0.051c-0.036,0.037-0.072,0.094-0.092,0.174h-0.093
		v-1.037h0.093c0.021,0.088,0.056,0.145,0.092,0.18c0.041,0.027,0.095,0.047,0.165,0.047h1.851v0.1
		c-0.077,0.027-0.136,0.057-0.169,0.104c-0.036,0.041-0.051,0.107-0.051,0.186v0.824c0,0.072,0.015,0.129,0.051,0.17
		c0.033,0.037,0.092,0.066,0.169,0.094v0.074c-0.743,0.418-1.496,0.623-2.236,0.623c-0.645,0-1.167-0.148-1.563-0.453
		c-0.216-0.17-0.388-0.373-0.522-0.623c-0.154-0.293-0.234-0.604-0.234-0.936c0-0.461,0.141-0.867,0.424-1.221
		c0.437-0.561,1.09-0.836,1.951-0.836c0.378,0,0.802,0.086,1.291,0.25c0.19,0.066,0.303,0.102,0.336,0.102
		c0.039,0,0.085-0.02,0.136-0.057l0.083,0.047l-0.46,0.98l-0.08-0.041v-0.021c0-0.08-0.087-0.172-0.262-0.266
		c-0.313-0.168-0.653-0.248-1.018-0.248c-0.419,0-0.761,0.109-1.031,0.342c-0.278,0.238-0.419,0.564-0.419,0.975
		c0,0.383,0.131,0.688,0.38,0.92c0.265,0.234,0.637,0.352,1.116,0.352c0.452,0,0.833-0.082,1.146-0.258V78.367z"/>
	<path fill="#F5A31E" d="M43.571,78.27v1.246c0,0.072,0.015,0.129,0.046,0.166c0.031,0.037,0.087,0.068,0.17,0.094v0.098h-1.368
		v-0.098c0.077-0.02,0.134-0.051,0.17-0.09c0.033-0.035,0.049-0.098,0.049-0.164v-3.189c0-0.078-0.016-0.129-0.046-0.17
		c-0.033-0.035-0.09-0.066-0.172-0.092v-0.098h2.542c0.329,0,0.586,0.014,0.755,0.051c0.178,0.035,0.327,0.098,0.468,0.186
		c0.275,0.176,0.417,0.48,0.417,0.896c0,0.314-0.087,0.563-0.257,0.74c-0.17,0.18-0.45,0.309-0.833,0.383l0.73,1.033
		c0.134,0.188,0.244,0.322,0.327,0.383c0.08,0.07,0.169,0.111,0.27,0.131v0.098h-1.635v-0.098c0.121-0.035,0.186-0.082,0.186-0.15
		c0-0.057-0.039-0.135-0.116-0.236l-0.774-1.119H43.571z M43.571,77.566h1.401c0.21,0,0.367-0.027,0.47-0.072
		c0.142-0.061,0.213-0.184,0.213-0.373c0-0.162-0.049-0.281-0.149-0.342c-0.101-0.066-0.283-0.096-0.535-0.096h-1.401V77.566z"/>
	<path fill="#F5A31E" d="M49.39,75.887c0.622,0,1.139,0.156,1.545,0.473c0.494,0.383,0.746,0.916,0.746,1.6
		c0,0.637-0.252,1.145-0.746,1.527c-0.406,0.311-0.92,0.469-1.537,0.469c-0.612,0-1.126-0.158-1.537-0.469
		c-0.496-0.383-0.743-0.9-0.743-1.564c0-0.662,0.247-1.189,0.743-1.563C48.272,76.055,48.786,75.896,49.39,75.887z M49.393,76.633
		c-0.398,0-0.725,0.125-0.979,0.383c-0.229,0.244-0.347,0.545-0.347,0.906c0,0.363,0.118,0.664,0.347,0.91
		c0.254,0.256,0.583,0.389,0.984,0.389s0.728-0.133,0.982-0.389c0.229-0.24,0.352-0.537,0.352-0.889
		c0-0.389-0.124-0.693-0.352-0.928C50.125,76.764,49.796,76.633,49.393,76.633z"/>
	<path fill="#F5A31E" d="M57.05,79.873l-1.75-3.281v2.914c0,0.078,0.021,0.129,0.051,0.17c0.031,0.033,0.087,0.064,0.167,0.09v0.107
		h-1.385v-0.107c0.08-0.025,0.139-0.057,0.172-0.09c0.034-0.041,0.052-0.092,0.052-0.17v-4.021c0-0.072-0.018-0.125-0.052-0.166
		c-0.033-0.035-0.092-0.066-0.172-0.092v-0.105h1.825v0.105c-0.11,0.031-0.162,0.092-0.162,0.201c0,0.041,0.013,0.098,0.049,0.158
		l1.29,2.455l1.306-2.416c0.056-0.105,0.087-0.188,0.087-0.234c0-0.098-0.057-0.148-0.17-0.164v-0.105h1.784v0.105
		c-0.079,0.025-0.139,0.057-0.169,0.092c-0.036,0.041-0.047,0.094-0.047,0.166v4.021c0,0.078,0.011,0.129,0.047,0.17
		c0.03,0.033,0.09,0.064,0.169,0.09v0.107h-1.475v-0.107c0.087-0.025,0.144-0.051,0.175-0.09c0.031-0.035,0.051-0.092,0.051-0.17
		v-2.914L57.05,79.873z"/>
	<path fill="#F5A31E" d="M63.852,78.9h-1.787l-0.198,0.424c-0.051,0.105-0.076,0.182-0.076,0.238c0,0.113,0.076,0.184,0.223,0.213
		v0.098h-1.426v-0.098c0.085-0.01,0.151-0.041,0.192-0.076c0.044-0.043,0.095-0.115,0.151-0.234l1.418-2.885
		c0.055-0.107,0.084-0.209,0.084-0.285c0-0.098-0.068-0.174-0.193-0.225v-0.098h1.506v0.098c-0.125,0.051-0.189,0.127-0.189,0.236
		c0,0.074,0.029,0.172,0.086,0.285l1.469,2.797c0.088,0.148,0.145,0.252,0.193,0.293c0.049,0.049,0.117,0.074,0.205,0.094v0.098
		h-1.578v-0.098c0.146-0.025,0.223-0.094,0.223-0.213c0-0.072-0.031-0.158-0.086-0.264L63.852,78.9z M63.576,78.352l-0.635-1.256
		l-0.605,1.256H63.576z"/>
	<path fill="#F5A31E" d="M69.637,78.475l0.59,0.857l-0.088,0.061c-0.051-0.041-0.098-0.061-0.129-0.061
		c-0.041,0-0.131,0.045-0.275,0.133c-0.314,0.186-0.59,0.311-0.834,0.383c-0.244,0.078-0.525,0.107-0.842,0.107
		c-0.631,0-1.15-0.148-1.551-0.453c-0.225-0.174-0.406-0.395-0.541-0.654c-0.141-0.285-0.215-0.594-0.215-0.926
		c0-0.459,0.133-0.855,0.395-1.209c0.412-0.551,1.049-0.826,1.902-0.826c0.322,0,0.6,0.041,0.846,0.111
		c0.25,0.072,0.525,0.199,0.84,0.383c0.145,0.092,0.234,0.133,0.275,0.133c0.031,0,0.078-0.02,0.129-0.061l0.088,0.061l-0.59,0.859
		l-0.074-0.057l0.004-0.057l0.002-0.041c0-0.113-0.154-0.244-0.465-0.389c-0.297-0.131-0.598-0.197-0.9-0.197
		c-0.418,0-0.764,0.105-1.041,0.326c-0.309,0.25-0.465,0.57-0.465,0.963c0,0.395,0.156,0.721,0.465,0.967
		c0.277,0.219,0.627,0.332,1.041,0.332c0.334,0,0.656-0.082,0.982-0.252c0.26-0.125,0.383-0.238,0.383-0.342
		c0,0-0.002-0.031-0.006-0.09L69.637,78.475z"/>
	<path fill="#F5A31E" d="M73.971,78.174h-2.174v1.342c0,0.072,0.021,0.129,0.051,0.166c0.031,0.037,0.09,0.068,0.176,0.094v0.098
		h-1.375v-0.098c0.078-0.02,0.141-0.051,0.172-0.09c0.033-0.035,0.051-0.098,0.051-0.164v-3.189c0-0.078-0.016-0.129-0.051-0.17
		c-0.029-0.035-0.094-0.066-0.172-0.092v-0.098h1.375v0.098c-0.086,0.025-0.145,0.051-0.176,0.092
		c-0.029,0.035-0.051,0.092-0.051,0.17v1.131h2.174v-1.131c0-0.078-0.016-0.129-0.045-0.17c-0.033-0.035-0.09-0.066-0.178-0.092
		v-0.098h1.375v0.098c-0.082,0.025-0.139,0.051-0.176,0.092c-0.029,0.035-0.051,0.092-0.051,0.17v3.184
		c0,0.072,0.021,0.129,0.051,0.166c0.037,0.037,0.094,0.068,0.176,0.094v0.098h-1.375v-0.098c0.084-0.02,0.141-0.051,0.172-0.09
		c0.031-0.041,0.051-0.098,0.051-0.164V78.174z"/>
	<path fill="#F5A31E" d="M76.959,76.332v3.184c0,0.072,0.016,0.129,0.041,0.166c0.035,0.037,0.09,0.068,0.174,0.094v0.098h-1.367
		v-0.098c0.074-0.02,0.131-0.051,0.168-0.09c0.033-0.035,0.049-0.098,0.049-0.164v-3.189c0-0.078-0.016-0.129-0.049-0.17
		c-0.031-0.035-0.088-0.066-0.168-0.092v-0.098h1.367v0.098c-0.084,0.025-0.139,0.051-0.174,0.092
		C76.975,76.197,76.959,76.254,76.959,76.332z"/>
	<path fill="#F5A31E" d="M78.928,77.301v2.215c0,0.072,0.016,0.129,0.045,0.166c0.037,0.037,0.094,0.074,0.176,0.094v0.098h-1.287
		v-0.098c0.078-0.02,0.135-0.051,0.168-0.09c0.037-0.035,0.053-0.098,0.053-0.164v-3.189c0-0.078-0.016-0.129-0.053-0.17
		c-0.027-0.035-0.086-0.066-0.168-0.092v-0.098h1.488v0.098c-0.098,0.025-0.152,0.07-0.152,0.139c0,0.057,0.039,0.123,0.111,0.191
		l2.084,2.08v-2.148c0-0.078-0.016-0.135-0.049-0.17c-0.031-0.041-0.088-0.066-0.17-0.092v-0.098h1.285v0.098
		c-0.082,0.025-0.139,0.051-0.172,0.092c-0.031,0.035-0.047,0.092-0.047,0.17v3.184c0,0.072,0.016,0.129,0.047,0.166
		c0.033,0.037,0.09,0.068,0.172,0.094v0.098h-1.385v-0.098c0.1-0.02,0.146-0.061,0.146-0.125c0-0.031-0.016-0.066-0.041-0.104
		c-0.025-0.031-0.09-0.102-0.186-0.199L78.928,77.301z"/>
	<path fill="#F5A31E" d="M84.291,78.213v0.957h2.467c0.07,0,0.131-0.021,0.168-0.047c0.039-0.035,0.068-0.092,0.09-0.178h0.098
		v1.152h-0.098c-0.02-0.08-0.049-0.137-0.09-0.172c-0.037-0.037-0.098-0.053-0.168-0.053h-3.617v-0.098
		c0.08-0.02,0.139-0.051,0.17-0.09c0.035-0.035,0.051-0.098,0.051-0.164v-3.189c0-0.078-0.016-0.129-0.047-0.17
		c-0.033-0.035-0.09-0.066-0.174-0.092v-0.098h3.514c0.066,0,0.125-0.02,0.162-0.045c0.039-0.035,0.074-0.092,0.098-0.174h0.092
		v1.148h-0.092c-0.023-0.082-0.059-0.145-0.098-0.174c-0.037-0.029-0.096-0.045-0.162-0.045h-2.363v0.855h1.463
		c0.074,0,0.131-0.02,0.166-0.051c0.041-0.033,0.066-0.09,0.098-0.172h0.092v1.123h-0.092c-0.027-0.088-0.057-0.139-0.094-0.174
		c-0.035-0.031-0.092-0.053-0.17-0.053H84.291z"/>
	<path fill="#F5A31E" d="M88.852,78.27v1.246c0,0.072,0.014,0.129,0.049,0.166c0.031,0.037,0.088,0.068,0.17,0.094v0.098h-1.367
		v-0.098c0.076-0.02,0.133-0.051,0.17-0.09c0.031-0.035,0.045-0.098,0.045-0.164v-3.189c0-0.078-0.014-0.129-0.045-0.17
		c-0.031-0.035-0.088-0.066-0.17-0.092v-0.098h2.545c0.326,0,0.576,0.014,0.756,0.051c0.17,0.035,0.326,0.098,0.463,0.186
		c0.277,0.176,0.418,0.48,0.418,0.896c0,0.314-0.088,0.563-0.26,0.74c-0.174,0.18-0.449,0.309-0.832,0.383l0.732,1.033
		c0.133,0.188,0.242,0.322,0.328,0.383c0.07,0.07,0.162,0.111,0.271,0.131v0.098h-1.641v-0.098c0.125-0.035,0.186-0.082,0.186-0.15
		c0-0.057-0.039-0.135-0.113-0.236l-0.779-1.119H88.852z M88.852,77.566h1.4c0.209,0,0.365-0.027,0.471-0.072
		c0.143-0.061,0.213-0.184,0.213-0.373c0-0.162-0.049-0.281-0.152-0.342c-0.094-0.066-0.273-0.096-0.531-0.096h-1.4V77.566z"/>
	<path fill="#F5A31E" d="M93.738,76.332v3.184c0,0.072,0.021,0.129,0.051,0.166c0.031,0.037,0.094,0.068,0.174,0.094v0.098h-1.377
		v-0.098c0.084-0.02,0.143-0.051,0.17-0.09c0.037-0.035,0.055-0.098,0.055-0.164v-3.189c0-0.078-0.016-0.129-0.049-0.17
		c-0.033-0.035-0.092-0.066-0.176-0.092v-0.098h1.377v0.098c-0.08,0.025-0.143,0.051-0.174,0.092
		C93.76,76.197,93.738,76.254,93.738,76.332z"/>
	<path fill="#F5A31E" d="M95.793,78.213v0.957h2.473c0.068,0,0.123-0.021,0.162-0.047c0.037-0.035,0.07-0.092,0.092-0.178h0.092
		v1.152H98.52c-0.021-0.08-0.051-0.137-0.088-0.172c-0.043-0.037-0.098-0.053-0.166-0.053h-3.623v-0.098
		c0.086-0.02,0.143-0.051,0.176-0.09c0.031-0.035,0.051-0.098,0.051-0.164v-3.189c0-0.078-0.016-0.129-0.051-0.17
		c-0.025-0.035-0.09-0.066-0.176-0.092v-0.098h3.512c0.074,0,0.131-0.02,0.17-0.045c0.039-0.035,0.066-0.092,0.092-0.174h0.094
		v1.148h-0.094c-0.025-0.082-0.053-0.145-0.092-0.174s-0.096-0.045-0.17-0.045h-2.361v0.855h1.469c0.072,0,0.121-0.02,0.162-0.051
		c0.041-0.033,0.072-0.09,0.098-0.172h0.09v1.123h-0.09c-0.025-0.088-0.051-0.139-0.086-0.174c-0.043-0.031-0.102-0.053-0.174-0.053
		H95.793z"/>
	<path fill="#F5A31E" d="M102.938,76.326l-0.467,0.908l-0.086-0.047c0-0.076-0.023-0.137-0.072-0.178
		c-0.133-0.123-0.322-0.221-0.58-0.297c-0.26-0.076-0.521-0.117-0.779-0.117c-0.229,0-0.426,0.037-0.602,0.098
		c-0.248,0.09-0.375,0.219-0.375,0.398c0,0.111,0.063,0.193,0.186,0.24c0.121,0.045,0.352,0.088,0.697,0.113l0.547,0.037
		c0.475,0.041,0.84,0.135,1.09,0.279c0.139,0.084,0.254,0.197,0.348,0.336c0.111,0.172,0.168,0.373,0.168,0.586
		c0,0.398-0.18,0.715-0.533,0.941c-0.34,0.223-0.797,0.33-1.383,0.33c-0.582,0-1.152-0.123-1.697-0.371
		c-0.035-0.016-0.07-0.021-0.092-0.021c-0.047,0-0.088,0.025-0.125,0.082l-0.09-0.035l0.396-0.957l0.09,0.037v0.029
		c0,0.057,0.023,0.113,0.066,0.154c0.119,0.102,0.316,0.188,0.602,0.266c0.283,0.076,0.566,0.107,0.844,0.107
		c0.246,0,0.463-0.025,0.656-0.092c0.244-0.082,0.367-0.209,0.367-0.383c0-0.145-0.086-0.24-0.252-0.297
		c-0.115-0.041-0.311-0.07-0.602-0.098l-0.543-0.041c-0.295-0.025-0.521-0.061-0.674-0.092c-0.15-0.035-0.293-0.09-0.408-0.162
		c-0.148-0.098-0.264-0.221-0.344-0.383c-0.082-0.16-0.129-0.332-0.129-0.527c0-0.424,0.182-0.75,0.551-0.975
		c0.336-0.211,0.74-0.311,1.236-0.311c0.262,0,0.51,0.037,0.742,0.09c0.23,0.063,0.51,0.164,0.824,0.314
		c0.094,0.041,0.158,0.064,0.195,0.064c0.039,0,0.086-0.023,0.143-0.074L102.938,76.326z"/>
	<path fill="#F5A31E" d="M106.699,79.088h2.904c0.074,0,0.123-0.016,0.164-0.053c0.035-0.025,0.066-0.082,0.09-0.166h0.111v1.229
		h-0.111c-0.023-0.08-0.055-0.143-0.09-0.172c-0.041-0.037-0.09-0.053-0.164-0.053h-4.164v-0.107
		c0.084-0.025,0.139-0.057,0.174-0.09c0.031-0.041,0.049-0.092,0.049-0.17v-4.018c0-0.076-0.018-0.129-0.049-0.17
		c-0.035-0.035-0.09-0.066-0.174-0.092v-0.105h1.475v0.105c-0.082,0.025-0.139,0.057-0.17,0.092
		c-0.035,0.041-0.045,0.094-0.045,0.17V79.088z"/>
	<path fill="#F5A31E" d="M112.523,76.684v2.832c0,0.072,0.016,0.129,0.043,0.166c0.033,0.037,0.09,0.068,0.176,0.094v0.098h-1.371
		v-0.098c0.08-0.02,0.135-0.051,0.17-0.09c0.033-0.035,0.049-0.098,0.049-0.164v-2.838h-1.145c-0.076,0-0.125,0.016-0.164,0.049
		c-0.043,0.031-0.072,0.088-0.094,0.17h-0.096v-1.148h0.096c0.021,0.076,0.049,0.133,0.086,0.17
		c0.045,0.029,0.096,0.049,0.172,0.049h3.219c0.078,0,0.129-0.02,0.168-0.045c0.039-0.035,0.068-0.092,0.094-0.174h0.096v1.148
		h-0.096c-0.025-0.082-0.055-0.139-0.094-0.17c-0.039-0.033-0.09-0.049-0.168-0.049H112.523z"/>
	<path fill="#F5A31E" d="M114.639,79.521v-3.189c0-0.078-0.016-0.129-0.049-0.17c-0.031-0.035-0.09-0.066-0.17-0.092v-0.098h2.277
		c0.473,0,0.846,0.057,1.121,0.18c0.383,0.17,0.664,0.443,0.824,0.826c0.119,0.271,0.182,0.588,0.182,0.943
		c0,0.67-0.199,1.176-0.592,1.518c-0.184,0.148-0.389,0.26-0.633,0.332c-0.238,0.066-0.539,0.102-0.902,0.102h-2.277v-0.098
		c0.08-0.02,0.135-0.051,0.17-0.09C114.623,79.65,114.639,79.588,114.639,79.521z M115.568,79.17h0.996
		c0.455,0,0.781-0.109,0.988-0.316c0.219-0.217,0.322-0.527,0.322-0.932c0-0.398-0.104-0.713-0.322-0.928
		c-0.105-0.113-0.232-0.189-0.398-0.24c-0.154-0.045-0.355-0.07-0.59-0.07h-0.996V79.17z"/>
	<path fill="#F5A31E" d="M120.168,78.816c0.158,0,0.291,0.057,0.404,0.162c0.107,0.113,0.164,0.252,0.164,0.41
		s-0.057,0.293-0.172,0.402c-0.111,0.113-0.242,0.164-0.396,0.164c-0.16,0-0.293-0.051-0.406-0.164
		c-0.113-0.115-0.164-0.248-0.164-0.408c0-0.156,0.051-0.291,0.164-0.404C119.869,78.873,120.008,78.822,120.168,78.816z"/>
</g>
</svg>
