<?xml version="1.0" encoding="utf-8"?>
<!-- Generator: Adobe Illustrator 16.0.0, SVG Export Plug-In . SVG Version: 6.00 Build 0)  -->
<!DOCTYPE svg PUBLIC "-//W3C//DTD SVG 1.1//EN" "http://www.w3.org/Graphics/SVG/1.1/DTD/svg11.dtd">
<svg version="1.1" id="Layer_1" xmlns="http://www.w3.org/2000/svg" xmlns:xlink="http://www.w3.org/1999/xlink" x="0px" y="0px"
	 width="123px" height="107px" viewBox="0 0 123 107" enable-background="new 0 0 123 107" xml:space="preserve">
<g>
	<path fill="#00A651" d="M42.067,7.3c6.003,2.064,24.242,10.139,18.339,30.775c0,0-2.88,7.935-9.713,17.028
		c0,0-8.396,9.8,1.353,16.09c0,0,7.433,3.981,6.534,9.63c0,0-1.729,9.709-14.221,6.394c0,0-11.286-2.105-15.772-15.187
		c0,0-4.675-11.516,4.679-24.091l0.237-0.391c2.392-3.351,8.545-13.848,8.545-13.848c7.175-11.893,1.335-22.596-0.893-25.712
		c0,0-1.095-1.179,0.251-0.861l0.544,0.132L42.067,7.3L42.067,7.3z"/>
	<path fill="#47B972" d="M78.333,43.803c0.467,3.724,0.335,8.123-0.917,13.256c0,0-2.556,9.733-8.842,14.971
		c0,0-4.877,4.19-10.759,0.359c0,0-6.031-3.602-2.946-11.67c0,0,0.634-2.07,5.244-6.3c0,0,6.756-6.136,9.486-21.821
		c0,0,0.346-1.614,0.52-3.769c0.217-2.81,2.518,0.328,2.176-0.101c0,0,4.432,4.243,6.032,14.971 M78.333,43.803"/>
	<path fill="#82CA9C" d="M67.657,78.796c-1.019,3.142,1.018,5.06,1.018,5.06c4.52,5.25,12.112,2.834,12.112,2.834
		c8.744-3.326,11.387-13.157,11.889-15.082l0.028-0.133c0.391-1.461,0.547-3.322,0.547-3.322c0.896-12.039-6.342-18.22-6.342-18.22
		c-2.183-1.782-1.666,1.203-1.666,1.203s1.479,7.956-5.391,16.864c0,0-2.179,3.131-7.621,6.384
		C72.231,74.383,68.403,76.488,67.657,78.796L67.657,78.796z"/>
	<path d="M54.534,98.254c0-0.927-0.23-1.642-0.697-2.141c-0.463-0.54-1.108-0.802-1.91-0.802c-0.886,0-1.548,0.248-2.019,0.767
		c-0.463,0.527-0.701,1.249-0.701,2.176c0,1.067,0.223,1.834,0.659,2.325c0.463,0.527,1.119,0.806,1.956,0.806
		c0.879,0,1.552-0.278,2.015-0.806C54.304,100.046,54.534,99.266,54.534,98.254 M49.207,91.515v3.062
		c0.335-0.485,0.833-0.879,1.492-1.196c0.554-0.251,1.248-0.376,2.071-0.376c1.458,0,2.66,0.491,3.598,1.488
		c0.935,0.997,1.405,2.294,1.405,3.873c0,1.587-0.471,2.873-1.405,3.87c-0.46,0.485-1.108,0.83-1.896,1.053
		c-0.792,0.217-1.583,0.324-2.364,0.324c-1.5,0-2.887-0.316-4.17-0.955c-1.279-0.642-1.914-1.868-1.914-3.675v-8.775h1.59
		c0.443,0,0.816,0.133,1.126,0.381C49.054,90.853,49.207,91.163,49.207,91.515L49.207,91.515z"/>
	<path d="M59.83,93.233h1.688c0.436,0,0.819,0.126,1.13,0.38c0.304,0.266,0.468,0.562,0.468,0.921v8.887H59.83V93.233 M59.83,90.249
		h1.688c0.436,0,0.819,0.133,1.13,0.38c0.304,0.259,0.468,0.575,0.468,0.928v0.813H59.83V90.249L59.83,90.249z"/>
	<path d="M64.467,103.421v-4.937c0-1.008,0.182-1.845,0.541-2.514c0.355-0.68,0.851-1.228,1.479-1.628
		c0.596-0.388,1.293-0.666,2.081-0.854c0.802-0.171,1.621-0.262,2.461-0.262h0.248h0.23v2.723h-1.085
		c-0.909,0-1.572,0.171-2.019,0.53c-0.436,0.362-0.652,0.924-0.652,1.691v5.25H64.467L64.467,103.421z"/>
	<path d="M75.951,98.254c0,1.012,0.241,1.792,0.694,2.325c0.481,0.527,1.144,0.806,2.025,0.806c0.837,0,1.492-0.278,1.963-0.806
		c0.433-0.533,0.648-1.313,0.648-2.325c0-0.927-0.227-1.648-0.693-2.176c-0.499-0.519-1.179-0.767-2.019-0.767
		c-0.806,0-1.443,0.262-1.925,0.802C76.192,96.612,75.951,97.327,75.951,98.254 M81.282,90.207h1.597c0.439,0,0.816,0.14,1.13,0.401
		c0.307,0.271,0.467,0.568,0.467,0.899v7.475c0,1.807-0.642,3.033-1.924,3.675c-1.283,0.639-2.671,0.955-4.163,0.955
		c-0.813,0-1.61-0.107-2.392-0.324c-0.781-0.223-1.408-0.567-1.876-1.053c-0.899-0.941-1.356-2.234-1.356-3.87
		c0-1.606,0.457-2.896,1.356-3.873c0.938-0.997,2.141-1.488,3.602-1.488c0.781,0,1.475,0.125,2.071,0.376
		c0.624,0.317,1.115,0.711,1.488,1.196V90.207L81.282,90.207z"/>
</g>
</svg>
