<?xml version="1.0" encoding="utf-8"?>
<!-- Generator: Adobe Illustrator 16.0.0, SVG Export Plug-In . SVG Version: 6.00 Build 0)  -->
<!DOCTYPE svg PUBLIC "-//W3C//DTD SVG 1.1//EN" "http://www.w3.org/Graphics/SVG/1.1/DTD/svg11.dtd">
<svg version="1.1" id="Layer_1" xmlns="http://www.w3.org/2000/svg" xmlns:xlink="http://www.w3.org/1999/xlink" x="0px" y="0px"
	 width="123px" height="107px" viewBox="0 0 123 107" enable-background="new 0 0 123 107" xml:space="preserve">
<g>
	<path fill="#F15A31" d="M40.544,74.458c1.624,0,2.768,0.204,3.444,0.586c0.662,0.394,0.998,1.038,0.998,1.942
		c0,0.497-0.136,0.923-0.397,1.284c-0.24,0.396-0.626,0.683-1.148,0.915c0.672,0.172,1.155,0.498,1.495,0.912
		c0.365,0.419,0.515,0.944,0.515,1.578c0,0.943-0.357,1.666-1.073,2.149c-0.723,0.476-1.795,0.719-3.258,0.719h-9.914V74.458H40.544
		L40.544,74.458z M35.691,76.829v1.413h3.043c0.647,0,1.08-0.036,1.266-0.15c0.193-0.09,0.293-0.283,0.293-0.544
		c0-0.279-0.1-0.465-0.269-0.576c-0.168-0.1-0.619-0.143-1.291-0.143H35.691L35.691,76.829z M35.691,82.029h3.187
		c0.737,0,1.23-0.05,1.445-0.193c0.201-0.121,0.315-0.325,0.315-0.626c0-0.318-0.114-0.525-0.343-0.657
		c-0.204-0.107-0.687-0.193-1.417-0.193h-3.187V82.029"/>
	<path fill="#F15A31" d="M51.893,84.594l-3.945-10.136h5.615l1.384,4.338c0.075,0.279,0.158,0.591,0.25,0.944
		c0.075,0.379,0.161,0.776,0.232,1.237c0.115-0.354,0.333-0.915,0.687-1.713l0.082-0.15l2.046-4.656h3.902l2.113,4.617
		c0.094,0.168,0.187,0.396,0.301,0.665c0.086,0.279,0.197,0.598,0.333,0.966c0.028-0.218,0.093-0.439,0.149-0.715
		c0.079-0.279,0.219-0.655,0.383-1.195l1.48-4.338h5.655l-4.027,10.136h-5.977l-1.906-4.127c-0.107-0.2-0.193-0.426-0.29-0.684
		c-0.079-0.211-0.143-0.461-0.211-0.708c-0.072,0.269-0.157,0.512-0.222,0.708c-0.057,0.229-0.158,0.44-0.236,0.604l-1.971,4.206
		H51.893"/>
	<path fill="#F15A31" d="M85.04,74.458v5.028c-0.294,1.256-1.37,1.32-1.681,1.32c-0.297,0-1.37-0.064-1.67-1.32v-5.028H75.15v5.325
		c0.154,1.893,1.971,4.918,8.209,4.811c6.298,0.136,8.062-2.918,8.208-4.811v-5.325H85.04"/>
	<path fill="#50B848" d="M61.048,54.243c-0.568-0.994-1.069-1.953-1.645-3.033c-0.154-0.29-0.526-0.701-0.533-1.001
		c-0.029-0.24,0.171-0.708,0.257-1.009c0.275-0.987,0.58-2.153,0.866-3.04c0.93,0,1.87,0,2.782,0
		c0.266,1.001,0.541,1.967,0.852,3.019c0.079,0.286,0.279,0.755,0.258,1.016c-0.025,0.301-0.387,0.726-0.547,1.016
		c-0.551,1.009-1.076,2.039-1.638,3.022c0.247,0.118,0.304,0.822-0.168,0.766c-0.279-1.259,0.029-2.89-0.043-4.371
		c0.193-0.175,0.375-0.226,0.433-0.454c0.186-0.83-1.173-1.016-1.116-0.118c0.021,0.333,0.243,0.368,0.437,0.572
		c-0.05,1.481,0.211,3.065,0,4.371l-0.075,0.007C60.755,55.005,60.791,54.372,61.048,54.243 M60.033,45.72
		c0,0,0.372-0.49,0.083-1.606c-6.431-6.245-15.072-1.534-15.072-1.534c-2.089,1.08-3.848,1.599-5.157,1.806
		c-0.555-0.862-1.037-1.763-1.463-2.7c1.509-0.222,3.194-0.783,3.194-0.783c3.587-1.277,6.313-1.341,6.313-1.341
		c8.362-0.719,12.411,4.306,13.509,5.916l0.093-0.132c1.244-1.763,5.297-6.459,13.42-5.783c0,0,2.711,0.064,6.313,1.341
		c0,0,1.588,0.547,3.061,0.769c-0.393,0.93-0.879,1.817-1.434,2.693c-1.309-0.236-3.033-0.705-5.064-1.785
		c0,0-8.877-4.832-15.318,1.785c-0.082,0.326-0.14,0.901,0.146,1.355H60.033 M61.381,45.563v-0.029
		c-0.347-0.476-0.73-0.873-1.098-1.27L61.381,45.563 M44.378,37.949c-4.095,0.887-6.102,0.994-6.957,1.016
		c-0.211-0.776-0.4-1.613-0.522-2.443c1.795,0.29,5.493-0.411,5.493-0.411c3.52-0.604,5.987-0.193,5.987-0.193
		c8.255,0.815,11.981,5.973,13.058,7.743c1.069-1.771,4.813-6.928,13.065-7.743c0,0,2.471-0.411,5.979,0.193
		c0,0,3.552,0.687,5.364,0.433c-0.139,0.83-0.3,1.645-0.521,2.421c-0.916-0.021-2.908-0.186-6.807-1.016
		c0,0-11.344-2.572-17.081,5.833C55.702,35.377,44.378,37.949,44.378,37.949 M61.41,41.947l-0.057-0.058
		c-5.426-8.154-17.364-7.7-17.364-7.7c-4.599,0.186-6.566-0.175-7.264-0.404V33.75c0-0.468,0.043-1.584,0.175-2.125
		c3.083,0.826,6.62,1.052,6.62,1.052c4.428,0.397,6.556,1.03,6.556,1.03c7.833,1.981,10.791,7.103,11.363,8.198
		c0.543-1.095,3.519-6.216,11.384-8.198c0,0,2.107-0.633,6.517-1.03c0,0,3.552-0.226,6.603-1.03l0.057,0.397l0.011,0.215
		c0.029,0.44,0.029,0.916,0.029,1.223v0.268c-0.655,0.236-2.45,0.626-7.132,0.44c0,0-12.057-0.483-17.468,7.772L61.41,41.947
		 M50.373,31.085c-0.229-0.079-2.425-0.83-6.788-1.305h-0.018h-0.018c0,0-3.616-0.279-6.527-1.223
		C38.849,17.197,49.06,8.51,61.381,8.51c12.332,0,22.521,8.688,24.328,20.047c-2.896,0.944-6.463,1.223-6.463,1.223h-0.047H79.16
		c-4.353,0.476-6.563,1.227-6.756,1.305c-6.084,1.813-9.432,5.755-11.023,8.298C59.771,36.84,56.453,32.898,50.373,31.085
		 M64.07,32.512c-0.687-0.497-1.506-0.801-2.328-0.887v-0.282h2.486c0.332,0,0.658-0.143,0.894-0.386
		c0.232-0.24,0.368-0.547,0.368-0.901v-3.323c0-0.697-0.568-1.28-1.262-1.28h-1.295l0.844-1.355l0.072,0.014l0.332-0.343
		l-0.332-0.333l-0.352,0.333l0.086,0.2l-0.895,1.484h-0.443l-0.912-1.527l0.061-0.208l-0.322-0.325l-0.343,0.325l0.343,0.365
		l0.079-0.028l0.83,1.398h-3.77c-0.687,0-1.241,0.583-1.241,1.28v0.944v0.079v2.3c0,0.354,0.132,0.662,0.354,0.901
		c0.24,0.243,0.547,0.386,0.887,0.386h2.503v0.282c-0.858,0.086-1.634,0.39-2.332,0.887H64.07 M43.141,27.526
		c0,0,1.474,1.406,2.937,0.619c0,0,0.619-0.293,0.601-0.848l0.018-0.061c0,0-0.819,0.554-1.896,0.061c0,0,0.801-0.218,1.545-0.658
		c0,0-0.59-0.483-1.266-0.44h-0.003C44.986,26.2,44.153,26.243,43.141,27.526 M49.06,27.988l0.404-0.647c0,0-0.304-0.075-0.737-0.29
		c0.257-0.987-0.007-1.67-0.007-1.67c-0.032,0.576-0.15,1.066-0.315,1.506c-1.116-0.597-2.825-1.874-3.641-4.324
		c0,0,0.171,2.178,2.217,4.035c-0.322,0.197-0.729,0.49-1.191,0.583c0,0,0.676,0.043,1.449-0.365
		C47.729,27.223,48.334,27.626,49.06,27.988 M72.809,27.34l0.59,0.129c0.258,0,0.543-0.129,0.736-0.483
		c0.226-0.383,0.451-0.951,0.673-1.484c0.265-0.54,0.532-1.094,0.673-1.462l-0.158-0.021h-0.146
		c-0.311,0.662-0.687,1.505-1.02,2.217c-0.114,0.24-0.236,0.586-0.396,0.751l-0.412,0.165l-0.561-0.143L72.809,27.34 M72.254,26.761
		l-0.078,0.44l0.3,0.085l0.165-0.05l0.104-0.272l-0.447-0.232L72.254,26.761 M78.859,26.793c0.611,0,1.22-0.154,1.75-0.558
		c1.021-0.826,1.126-2.418,0.768-3.609c-0.389-1.209-1.619-2.146-2.9-2.231h-0.168c-1.133,0-2.303,0.64-3.115,1.499l-0.139-0.122
		l-0.469-0.064c-0.479,0-0.901,0.186-1.324,0.386l0.137,0.426c0.314-0.101,0.68-0.336,1.048-0.336l0.462,0.172
		c0.465,0.347,0.268,1.016,0.242,1.513l0.272,0.021l0.171-0.021c0.129-0.604,0.101-1.188-0.113-1.699
		c0.539-0.572,1.276-1.03,2.041-1.241c0.24-0.057,0.508-0.093,0.756-0.093c0.99,0,1.838,0.554,2.488,1.398v0.021v-0.021
		c0.594,1.073,0.63,2.779-0.368,3.623c-0.36,0.343-0.872,0.525-1.398,0.547l-0.157,0.036c-0.433,0-0.855-0.107-1.244-0.282
		l-0.015-0.015c0.101-0.271,0.079-0.554-0.097-0.79c-0.146-0.189-0.347-0.261-0.576-0.261l-0.625,0.232
		c-0.387,0.322-0.486,0.869-0.201,1.216c0.14,0.179,0.369,0.254,0.58,0.254l0.611-0.218l0.093-0.079
		C77.826,26.704,78.348,26.793,78.859,26.793 M49.021,26.475l0.04-0.036c0.519-0.128,0.619-0.815,0.619-0.815
		c0.336-1.634-1.366-2.693-1.366-2.693c-0.98,1.427-0.712,2.232-0.712,2.232c0.14,0.694,0.78,1.126,0.78,1.126
		c0.175-0.837,0.175-1.66,0.175-1.66C49.3,25.502,49.021,26.475,49.021,26.475 M70.92,25.971l0.301,0.418l0.268-0.197v-0.05
		l-0.344-0.397L70.92,25.971 M71.949,23.349c-0.425,0.368-0.891,0.705-1.219,1.059c-0.473,0.554-0.223,1.073,0.146,1.463
		l0.215-0.147c-0.197-0.279-0.412-0.611-0.236-0.955l0.598-0.569c0.629-0.551,1.27-1.191,1.809-1.681l-0.135-0.265
		C72.787,22.562,72.39,22.959,71.949,23.349 M78.155,25.212h0.951v-1.102l1.073-0.014v-0.995l-1.102,0.021v-1.094l-0.959,0.021
		v1.087l-1.055,0.032v0.962l1.091-0.021V25.212 M44.9,24.357c0,0-0.687-1.18-0.136-2.75c0,0,0.314,1.137,0.873,2.174
		c0,0,0.558-0.901,0.5-1.874c0,0,0-1.209-1.706-2.693c0,0-1.631,2.282-0.641,4.299c0,0,0.379,0.894,1.073,0.808L44.9,24.357
		 M63.785,19.386h7.861v-0.483h-7.861V19.386 M47.948,18.732c3.748-0.072,7.454-0.186,11.212-0.283h0.154
		c0.211-0.014,0.408-0.014,0.622-0.021l-0.021-0.394l-0.042-0.064c-0.755,0.029-1.509,0.05-2.275,0.05l-0.05-0.204l-0.018-0.143
		l0.222-0.375c0.526-0.286,1.048-0.511,1.595-0.769v0.021c0.043-0.858,0.257-1.684,0.49-2.464l-0.021-0.036v-0.007l-0.021-0.021
		l-0.071-0.043c-0.211-0.204-0.844-0.858-1.47-1.846h-0.014h-0.014l-0.011-0.028v-0.021c-0.304,0.107-0.755,0.107-1.044,0.107
		l-1.423-0.021l-0.243,0.368c-0.598,0.247-1.206,0.497-1.795,0.733c-1.438,0.586-2.886,1.169-4.342,1.724l0.04,0.057l-0.426-0.028
		l-0.079,0.129c-0.168,0.122-0.3,0.339-0.604,0.676l0.04,0.05l0.175,0.98l0.046,0.058l0.129,0.032l0.3,0.136l0.257,0.397
		l-0.05,0.315l-0.032,0.157l-0.05,0.297l0.015,0.014c-0.404,0-0.812,0.014-1.223,0.021l0.028,0.397v0.021L47.948,18.732
		 M69.965,15.259v3.212h1.385v-4.406L67.611,11.7l-3.584,2.364v4.406h4.418v-3.212H69.965 M71.824,13.878l0.272-0.433l-4.521-2.861
		l-4.277,2.868l0.264,0.426l4.014-2.689L71.824,13.878 M58.212,30.881c-0.218,0-0.426-0.086-0.562-0.258
		c-0.172-0.136-0.25-0.333-0.25-0.568v-0.676c0.146,0.279,0.308,0.494,0.508,0.633c0.247,0.186,0.49,0.279,0.751,0.279h0.165
		l0.104-0.036h0.1h0.165c0.365-0.086,0.644-0.243,0.887-0.519c0.304,0.604,0.651,0.765,0.955,0.765c0.418,0,0.766-0.39,0.766-0.39
		c0.226-0.24,0.446-0.347,0.669-0.347c0.447,0,0.793,0.433,0.793,0.433l0.444-0.844c-0.351-0.236-0.665-0.322-0.931-0.322
		c-0.854,0-1.423,0.776-1.423,0.776l-0.261,0.161c-0.243,0-0.461-0.34-0.461-0.34l-0.186-0.483c0.157-0.425,0.243-0.958,0.157-1.47
		c-0.093-0.791-0.486-1.417-0.962-1.778h4.589c0.453,0,0.814,0.361,0.814,0.833v3.323c0,0.236-0.057,0.433-0.214,0.568
		c-0.175,0.172-0.376,0.258-0.601,0.258H58.212 M58.642,30.198c-0.243,0-0.465-0.086-0.697-0.243
		c-0.208-0.175-0.379-0.418-0.544-0.715v-1.095l0.165,0.576l0.343-0.412l-0.057-0.308l0.021-0.311L57.4,27.287v-0.554
		c0-0.472,0.365-0.833,0.812-0.833h0.891c0.519,0.344,0.891,1.023,0.987,1.813c0.193,1.22-0.39,2.364-1.266,2.486H58.642
		 M58.659,28.807l0.025,0.73h0.068c0.232-0.021,0.44-0.172,0.594-0.375l-0.504-0.512L58.659,28.807 M57.787,29.082l0.49,0.39v-0.68
		l-0.143-0.114L57.787,29.082 M59.028,27.763l0.014,0.154l-0.014,0.314l0.529,0.504c0.1-0.293,0.143-0.647,0.082-1.001l-0.114-0.469
		L59.028,27.763 M58.642,27.115l0.236,0.247l0.437-0.519c-0.168-0.268-0.415-0.461-0.672-0.533V27.115 M57.565,26.822l0.469,0.476
		l0.218-0.182l-0.053-0.855C57.937,26.346,57.69,26.561,57.565,26.822 M62.611,29.629l0.247-0.426c0,0,0.379,0.064,0.601,0.204
		l-0.239,0.486L62.611,29.629 M62.107,29.422l0.436-0.154l-0.175,0.297l-0.422,0.172L62.107,29.422 M58.817,18.435l0.687-0.015
		l-0.189,0.029H59.16L58.817,18.435 M49.139,18.285v0.007v0.014l-0.791,0.014C48.563,18.271,48.863,18.271,49.139,18.285
		 M49.897,17.917l-0.075-0.401c-0.029-0.218,0.086-0.318,0.515-0.304c0.912,0.042,1.824,0.085,2.754,0.143
		c0.998,0.042,1.981,0.079,2.961,0.125c0.705,0.036,0.765-0.125,0.705,0.576c-2.257,0.05-4.517,0.115-6.778,0.179L49.897,17.917
		 M49.16,17.952l0.032-0.157l0.057-0.25l-0.089,0.54V17.952 M49.729,17.197h0.007l0.086,0.318l0.075,0.401v0.053L49.729,17.197
		 M56.8,17.788l-0.011,0.086L56.8,17.788 M56.825,17.494h0.007v0.021L56.825,17.494 M55.884,17.147c-0.79,0-1.538,0-2.303,0
		c-0.88-0.015-1.752-0.015-2.636-0.043c-0.279,0-0.586,0-0.901-0.021H50l0.15-0.079l0.286-0.057c-0.04-0.312,0.129-0.715,0.236-1.03
		V15.91l0.011-0.007l-0.018-0.032v-0.007l-0.021-0.014l0,0l-0.59-0.755c1.094-0.49,2.228-0.987,3.319-1.484
		c0.626-0.293,1.263-0.562,1.871-0.852l0.136-0.071l0.064-0.021l-0.107,0.161c-0.322,0.444-0.683,0.884-1.077,1.295l0.036,0.086
		l0.021,0.028l0.032,0.086c0.083,0.232,0.269,0.772,0.415,1.534c0.036,0.254,0.079,0.519,0.104,0.737l0.036,0.05
		c-0.003,0.079,0.49,0.2,0.873,0.304l0.44,0.186l-0.247,0.015H55.884 M56.86,17.062l-0.028-0.014
		c-0.422-0.261-0.869-0.476-1.324-0.651c0.218-0.215,0.455-0.444,0.69-0.655l0.415-0.418l0.329,0.029v0.225
		c-0.018,0.483-0.061,0.973-0.111,1.47L56.86,17.062 M49.307,17.062L49.3,17.047l-0.161-0.086l-0.204-0.083l-0.085-0.043
		l0.261-0.265l0.19-0.211l0.104,0.015c-0.003,0.232-0.064,0.468-0.104,0.672L49.307,17.062 M49.7,17.033l0.021,0.015H49.7V17.033
		 M57.422,17.011h0.014H57.422L57.422,17.011 M49.636,16.672l-0.046-0.222l-0.011-0.007v-0.068l0.057-0.058l0.447,0.498
		l-0.361,0.175L49.636,16.672 M57.304,16.11l-0.107-0.619l-0.021-0.139l0.225-0.129c0.443,0.368,0.883,0.708,1.359,1.087
		c-0.458,0.182-0.916,0.39-1.324,0.658C57.379,16.7,57.347,16.396,57.304,16.11 M50.265,16.714l-0.014-0.042l-0.558-0.412l0.036-0.1
		l0.079-0.029l0.268-0.021l0.297-0.029l-0.122,0.59L50.265,16.714 M48.57,16.096v-0.071l0.1,0.036l0.547,0.064l0.032,0.093
		l-0.572,0.418L48.57,16.096 M54.868,16.571l0.011-0.05l0.004,0.028L54.868,16.571 M58.767,16.311l-0.222-0.2l0.254,0.207
		l-0.011,0.007L58.767,16.311 M48.391,16.024l0.036,0.128L48.391,16.024 M55.197,16.06l0.003,0.014h-0.003V16.06 M49.679,16.024
		l-0.014-0.043l0.014,0.028l0.043,0.05H49.7L49.679,16.024 M54.89,14.748l-0.021-0.229l0.272,0.021
		c0.433,0.064,0.866,0.114,1.313,0.165l0.043,0.354l-0.472,0.326c-0.279,0.222-0.537,0.429-0.823,0.625
		C55.126,15.577,55.029,15.159,54.89,14.748 M49.643,15.953l0.308-0.504l0.032-0.096l0.161,0.218l0.107,0.114l0.107,0.15
		c-0.222,0.053-0.458,0.104-0.68,0.175L49.643,15.953 M49.189,15.96l-0.254-0.057l-0.314-0.089l0.4-0.49l0.318,0.547l-0.122,0.111
		L49.189,15.96 M50.651,15.877l0.021,0.025v0.014l-0.043,0.021L50.651,15.877 M49.428,15.877l-0.018-0.014l0.028,0.014H49.428
		 M48.316,15.849h0.018v0.021L48.316,15.849 M49.428,15.849l-0.229-0.59l-0.01-0.036l0.01,0.036l0.58,0.015l-0.143,0.297
		l-0.057,0.236l-0.014,0.057L49.428,15.849 M48.313,15.828l0.05-0.036l-0.046,0.05L48.313,15.828 M48.57,15.828V15.82V15.828
		L48.57,15.828 M58.62,15.685c-0.354-0.222-0.74-0.447-1.102-0.647l0.082-0.29l-0.007-0.043l0.007,0.043
		c0.555-0.072,1.123-0.15,1.674-0.236c-0.136,0.412-0.232,0.869-0.29,1.316L58.62,15.685 M59.557,15.051l-0.154,0.755
		C59.446,15.591,59.496,15.337,59.557,15.051 M50.094,15.194l0.25,0.333L50.094,15.194 M49.822,15.223h0.007v0.007L49.822,15.223
		 M50.015,15.059l0.003-0.007l0.007,0.021L50.015,15.059 M49.528,15.051L49.528,15.051l0.018,0.007l-0.014-0.007 M49.643,14.93
		l-0.15,0.072L49.643,14.93 M56.46,14.676h0.014v0.015L56.46,14.676 M57.443,14.411l0.104,0.107l0.007,0.021h-0.007L57.443,14.411
		 M57.386,14.329c0.286-0.494,0.558-0.983,0.858-1.481l0.318,0.422c0.204,0.261,0.408,0.504,0.64,0.729
		c-0.379,0.122-0.783,0.257-1.169,0.347l-0.487,0.15L57.386,14.329 M56.496,14.476l0.111-0.079l-0.097,0.079H56.496 M55.988,14.322
		c-0.329-0.107-0.672-0.171-0.987-0.279c0.247-0.304,0.515-0.626,0.744-0.944l0.139-0.25l0.104,0.15
		c0.229,0.383,0.465,0.776,0.683,1.123l-0.014,0.136l-0.161,0.204L55.988,14.322 M54.317,14.257L54.311,14.2L54.317,14.257
		 M56.911,14.122l-0.386-0.887l-0.24-0.547c0.515,0.014,1.012,0.014,1.502-0.043c-0.1,0.275-0.211,0.54-0.308,0.801L57.24,14
		l-0.101,0.157L56.911,14.122 M59.231,14.021h0.018h-0.011H59.231 M55.183,13.099c-0.168,0.218-0.361,0.461-0.586,0.712
		L55.183,13.099 M56.263,12.645L56.263,12.645 M56.145,12.212l0.569,0.014L56.145,12.212"/>
	<path fill="#B1B3B6" d="M61.488,61.532l-0.036-0.082c-6.159-9.203-19.625-8.677-19.625-8.677c-1.055,0.05-1.971,0.057-2.808,0.05
		v0.007h-5.504l-0.085-0.232c-1.452-4.12-2.2-8.483-2.2-12.929c0-7.597,2.106-14.792,6.091-20.78
		c3.874-5.812,9.338-10.183,15.429-12.257h0.036l0.075-0.036l0.193-0.054c0.275-0.086,0.543-0.172,0.801-0.25h0.015
		c1.674-0.504,3.369-0.837,5.093-0.98h0.165l0.018-0.021h0.046l0.465-0.028h0.014l0.498-0.021h0.014
		c0.297,0,0.622-0.029,0.934-0.029h0.05h0.111h0.043h0.014h0.047c16.605,0,30.136,15.451,30.136,34.457
		c0,4.445-0.744,8.809-2.225,12.929l-0.075,0.232h-4.864l0.011-0.007c-0.901,0.007-1.946,0-3.134-0.05
		c0,0-13.598-0.526-19.721,8.773L61.488,61.532 M34.21,35.86c0,3.38,1.356,10.157,3.627,14.811c1.985,0.293,3.487,0.401,3.487,0.401
		c5,0.433,7.364,1.147,7.364,1.147c8.877,2.211,12.207,8.037,12.822,9.253c0.658-1.216,4.002-7.042,12.851-9.253
		c0,0,2.396-0.715,7.356-1.147c0,0,1.643-0.129,3.709-0.444c1.942-4.367,3.055-9.9,2.872-14.625
		C87.622,18.889,76.045,5.974,61.32,5.917h-0.111h-0.075c-0.308,0-0.626,0-0.93,0.021L59.7,5.974l-0.426,0.029H59.25l-0.168,0.021
		h-0.04h-0.014h-0.021c-1.681,0.154-3.34,0.454-4.946,0.923c-0.261,0.093-0.533,0.168-0.819,0.247l-0.014,0.014l-0.214,0.093h-0.021
		C41.76,11.189,34.21,22.659,34.21,35.86"/>
	<path fill="#77787B" d="M65.215,99.258h-1.273v-1.48h1.398c0.333,0,0.569,0.063,0.716,0.2l0.229,0.525L66.163,98.9l-0.351,0.271
		C65.68,99.229,65.455,99.258,65.215,99.258L65.215,99.258z M65.991,99.944l-0.354-0.218c0.43-0.051,0.744-0.201,0.938-0.419
		c0.211-0.229,0.314-0.479,0.314-0.805c0-0.239-0.074-0.482-0.193-0.683l-0.475-0.434c-0.211-0.078-0.505-0.114-0.895-0.114h-1.963
		v4.514h0.578v-2.01h0.67l0.346,0.021l0.258,0.125l0.283,0.293c0.132,0.15,0.261,0.326,0.433,0.634l0.587,0.937h0.723l-0.773-1.244
		C66.316,100.302,66.163,100.102,65.991,99.944L65.991,99.944z M41.209,100.813l-2.303-3.541h-0.594v4.514h0.543v-3.544l2.329,3.544
		h0.601v-4.514h-0.576V100.813L41.209,100.813z M45.53,101.786h0.587v-4.514H45.53V101.786L45.53,101.786z M51.599,100.542
		c-0.082,0.235-0.175,0.489-0.232,0.74c-0.064-0.243-0.154-0.469-0.239-0.74l-1.145-3.27h-0.63l1.721,4.514h0.579l1.728-4.514
		h-0.594L51.599,100.542L51.599,100.542z M57.189,99.719h2.414V99.2h-2.414v-1.395h2.582v-0.533h-3.165v4.514h3.266v-0.54h-2.683
		V99.719L57.189,99.719z M81.303,97.806h1.441v3.98h0.598v-3.98h1.434v-0.533h-3.473V97.806L81.303,97.806z M90.963,97.272
		l-0.858,1.331c-0.189,0.297-0.344,0.562-0.486,0.779c-0.14-0.232-0.279-0.49-0.447-0.744l-0.865-1.366h-0.705l1.706,2.586v1.928
		h0.572v-1.928l1.76-2.586H90.963L90.963,97.272z M77.34,101.786h0.598v-4.514H77.34V101.786L77.34,101.786z M73.016,99.404
		c-0.172-0.071-0.5-0.176-0.969-0.282c-0.465-0.115-0.762-0.222-0.866-0.322l-0.179-0.411l0.236-0.469
		c0.157-0.143,0.418-0.196,0.766-0.196c0.336,0,0.582,0.067,0.783,0.218c0.157,0.144,0.261,0.361,0.289,0.641l0.559-0.036
		c0-0.269-0.079-0.504-0.215-0.719c-0.137-0.189-0.322-0.361-0.576-0.469c-0.258-0.104-0.533-0.161-0.865-0.161
		c-0.286,0-0.562,0.058-0.798,0.154c-0.235,0.114-0.422,0.257-0.551,0.454c-0.122,0.186-0.189,0.415-0.189,0.633l0.161,0.568
		l0.465,0.412c0.15,0.085,0.437,0.186,0.84,0.278c0.404,0.101,0.655,0.168,0.791,0.232l0.387,0.258l0.121,0.354l-0.121,0.396
		l-0.379,0.279l-0.569,0.093c-0.261,0-0.493-0.043-0.683-0.107l-0.447-0.368c-0.094-0.144-0.15-0.336-0.193-0.555l-0.54,0.05
		c0.007,0.312,0.089,0.565,0.251,0.795c0.143,0.25,0.361,0.425,0.621,0.547c0.266,0.114,0.602,0.179,0.998,0.179
		c0.312,0,0.594-0.064,0.844-0.179c0.248-0.122,0.447-0.275,0.584-0.497c0.136-0.208,0.193-0.426,0.193-0.676
		c0-0.232-0.051-0.462-0.172-0.641C73.47,99.676,73.262,99.525,73.016,99.404L73.016,99.404z M34.085,99.858
		c0,0.583-0.1,0.955-0.293,1.151c-0.171,0.208-0.476,0.294-0.897,0.294c-0.25,0-0.465-0.058-0.64-0.144l-0.369-0.426
		c-0.057-0.192-0.096-0.468-0.096-0.876v-2.586h-0.601v2.593c0,0.494,0.057,0.855,0.186,1.138c0.104,0.265,0.279,0.469,0.558,0.626
		c0.265,0.157,0.586,0.222,1.008,0.222c0.426,0,0.772-0.093,1.02-0.25c0.275-0.165,0.443-0.383,0.551-0.662
		c0.096-0.261,0.154-0.608,0.154-1.073v-2.593h-0.58V99.858L34.085,99.858z M52.146,92.791c-0.154,0.064-0.347,0.101-0.576,0.101
		c-0.254,0-0.469-0.051-0.669-0.144l-0.437-0.34c-0.107-0.157-0.164-0.34-0.2-0.562l-0.543,0.064c0.007,0.29,0.1,0.555,0.243,0.802
		c0.157,0.229,0.372,0.411,0.637,0.519c0.275,0.129,0.604,0.192,0.998,0.192c0.301,0,0.59-0.063,0.858-0.192
		c0.236-0.107,0.433-0.283,0.569-0.49c0.136-0.204,0.193-0.426,0.193-0.673c0-0.235-0.058-0.457-0.165-0.633
		c-0.147-0.193-0.326-0.329-0.58-0.461c-0.165-0.072-0.494-0.187-0.958-0.286c-0.49-0.101-0.783-0.219-0.894-0.326l-0.168-0.382
		l0.236-0.501c0.157-0.111,0.426-0.183,0.762-0.183c0.347,0,0.594,0.071,0.772,0.218c0.175,0.144,0.279,0.365,0.308,0.655
		l0.565-0.051c-0.014-0.268-0.085-0.504-0.225-0.715c-0.136-0.215-0.311-0.365-0.562-0.469c-0.265-0.121-0.543-0.164-0.866-0.164
		c-0.297,0-0.568,0.043-0.808,0.15c-0.25,0.096-0.437,0.254-0.554,0.446c-0.122,0.204-0.197,0.411-0.197,0.637l0.157,0.569
		l0.472,0.422c0.168,0.089,0.447,0.175,0.851,0.282c0.401,0.093,0.658,0.157,0.78,0.207l0.408,0.269l0.104,0.361l-0.104,0.387
		L52.146,92.791L52.146,92.791z M31.789,91.278h1.033c0.269,0,0.487,0.021,0.623,0.064l0.347,0.261l0.15,0.443l-0.1,0.383
		l-0.208,0.24l-0.351,0.143l-0.39,0.007h-1.105V91.278L31.789,91.278z M31.789,89.368h0.883c0.318,0,0.536,0.036,0.665,0.079
		l0.311,0.218l0.107,0.39l-0.114,0.394l-0.333,0.24c-0.125,0.035-0.312,0.057-0.562,0.057h-0.958V89.368L31.789,89.368z
		 M33.599,93.274l0.494-0.24l0.311-0.407l0.122-0.58c0-0.257-0.057-0.511-0.204-0.683c-0.146-0.193-0.361-0.325-0.608-0.411
		l0.461-0.4l0.146-0.559l-0.153-0.59l-0.483-0.415c-0.226-0.097-0.501-0.146-0.819-0.146h-1.659v4.503h1.688
		C33.177,93.346,33.409,93.31,33.599,93.274L33.599,93.274z M41.191,91.3h2.407v-0.533h-2.407v-1.398h2.586v-0.525h-3.176v4.503
		h3.276v-0.526h-2.686V91.3L41.191,91.3z M89.229,93.346h0.594v-1.91l1.745-2.593h-0.676l-0.855,1.334
		c-0.2,0.279-0.34,0.547-0.476,0.79c-0.143-0.257-0.293-0.519-0.447-0.769l-0.88-1.355H87.54l1.688,2.593V93.346L89.229,93.346z
		 M58.928,89.368h1.47v3.978h0.572v-3.978h1.463v-0.525h-3.505V89.368L58.928,89.368z M70.701,89.39
		c0,0.064,0.058,0.254,0.119,0.533l0.926,3.423h0.586l1.195-4.503h-0.583l-0.69,2.896c-0.082,0.354-0.157,0.705-0.215,0.974
		c-0.082-0.483-0.2-1.016-0.347-1.599l-0.626-2.271h-0.715l-0.816,3.04c-0.035,0.093-0.089,0.361-0.218,0.83
		c-0.05-0.305-0.106-0.619-0.192-0.916l-0.641-2.954h-0.611l1.147,4.503h0.622l0.912-3.43C70.615,89.772,70.651,89.601,70.701,89.39
		L70.701,89.39z M79.887,91.493l0.482-1.31c0.111-0.289,0.176-0.583,0.24-0.865c0.07,0.239,0.171,0.562,0.314,0.93l0.461,1.245
		H79.887L79.887,91.493z M82.071,93.346h0.661l-1.784-4.503h-0.654l-1.685,4.503h0.622l0.49-1.37h1.846L82.071,93.346L82.071,93.346
		z M88.731,70.706v-2.461h-0.308v1.936l-1.263-1.936h-0.322v2.461h0.304v-1.935l1.256,1.935H88.731L88.731,70.706z M58.842,70.413
		h-1.474v-0.83h1.327v-0.286h-1.327v-0.751h1.431v-0.301h-1.731v2.461h1.774V70.413L58.842,70.413z M52.146,70.706h0.315v-2.16
		h0.794v-0.301h-1.903v0.301h0.794V70.706L52.146,70.706z M40.351,70.413v-1.867h0.511l0.418,0.043l0.293,0.275
		c0.079,0.143,0.114,0.343,0.114,0.59l-0.071,0.49L41.46,70.23l-0.218,0.132l-0.379,0.051H40.351L40.351,70.413z M41.295,70.656
		l0.279-0.129l0.236-0.208l0.15-0.368l0.064-0.49c0-0.218-0.025-0.425-0.093-0.59l-0.286-0.418l-0.351-0.165l-0.433-0.043h-0.826
		v2.461h0.862L41.295,70.656L41.295,70.656z M84.41,69.583h1.313v-0.286H84.41v-0.751h1.424v-0.301h-1.756v2.461h1.791v-0.293H84.41
		V69.583L84.41,69.583z M66.01,70.413h-1.478v-0.83h1.319v-0.286h-1.319v-0.751h1.413v-0.301h-1.729v2.461h1.793V70.413
		L66.01,70.413z M44.253,68.546h0.805v2.16h0.304v-2.16h0.791v-0.301h-1.899V68.546L44.253,68.546z M90.395,70.706h0.314v-2.16
		h0.794v-0.301H89.6v0.301h0.795V70.706L90.395,70.706z M81.063,68.61l0.673,2.096h0.297l0.7-2.046v2.046h0.315v-2.461h-0.433
		l-0.583,1.706l-0.129,0.39l-0.125-0.354l-0.548-1.742h-0.493v2.461h0.325V68.61L81.063,68.61z M71.518,70.413h-1.475v-0.83h1.334
		v-0.286h-1.334v-0.751h1.417v-0.301h-1.731v2.461h1.789V70.413L71.518,70.413z M31.517,68.531h0.769l0.397,0.086l0.114,0.318
		l-0.057,0.2l-0.189,0.161l-0.34,0.043h-0.694V68.531L31.517,68.531z M31.517,69.619h0.368l0.19,0.014l0.15,0.058l0.15,0.161
		l0.225,0.329l0.326,0.525h0.39l-0.411-0.669l-0.261-0.332l-0.189-0.122c0.229-0.021,0.397-0.101,0.5-0.229l0.172-0.44l-0.093-0.368
		l-0.275-0.236l-0.483-0.064h-1.069v2.461h0.311V69.619L31.517,69.619z M35.791,70.209c-0.157,0.183-0.354,0.261-0.59,0.261
		c-0.232,0-0.436-0.078-0.594-0.261c-0.139-0.172-0.229-0.4-0.229-0.69c0-0.383,0.089-0.633,0.25-0.787
		c0.15-0.164,0.347-0.243,0.572-0.243l0.426,0.122l0.293,0.347l0.1,0.525C36.02,69.779,35.945,70.037,35.791,70.209L35.791,70.209z
		 M35.798,68.374c-0.172-0.121-0.375-0.183-0.598-0.183c-0.347,0-0.622,0.118-0.822,0.354c-0.211,0.226-0.318,0.547-0.318,0.966
		l0.122,0.597l0.411,0.469c0.172,0.101,0.375,0.179,0.608,0.179l0.576-0.164l0.422-0.44c0.097-0.2,0.146-0.433,0.146-0.669
		c0-0.239-0.05-0.468-0.146-0.668L35.798,68.374L35.798,68.374z M55.688,69.25h-1.263v-1.005H54.11v2.461h0.315v-1.173h1.263v1.173
		h0.318v-2.461h-0.318V69.25L55.688,69.25z M62.858,69.944l-0.175,0.286l-0.227,0.132L62.1,70.413h-0.532v-1.867h0.515l0.396,0.043
		l0.309,0.275c0.089,0.143,0.129,0.343,0.129,0.59L62.858,69.944L62.858,69.944z M62.865,68.453l-0.357-0.165L62.1,68.245h-0.84
		v2.461h0.873l0.375-0.05l0.293-0.129l0.215-0.208l0.168-0.368l0.061-0.49c0-0.218-0.024-0.425-0.104-0.59L62.865,68.453
		L62.865,68.453z M37.708,69.69l0.254-0.719l0.136-0.454l0.179,0.497l0.254,0.676H37.708L37.708,69.69z M38.906,70.706h0.368
		l-0.998-2.461h-0.351l-0.912,2.461h0.336l0.265-0.755h1.012L38.906,70.706L38.906,70.706z M68.92,68.245h-0.321l-0.647,1.792
		l-0.143,0.39l-0.122-0.39l-0.626-1.792h-0.336l0.912,2.461h0.336L68.92,68.245L68.92,68.245z M48.599,70.209
		c-0.172,0.183-0.369,0.261-0.594,0.261c-0.254,0-0.433-0.078-0.601-0.261c-0.164-0.172-0.222-0.4-0.222-0.69
		c0-0.383,0.079-0.633,0.229-0.787c0.161-0.164,0.358-0.243,0.594-0.243l0.422,0.122l0.293,0.347l0.093,0.525
		C48.813,69.779,48.734,70.037,48.599,70.209L48.599,70.209z M48.599,68.374c-0.172-0.121-0.379-0.183-0.594-0.183
		c-0.347,0-0.622,0.118-0.844,0.354c-0.2,0.226-0.308,0.547-0.308,0.966l0.143,0.597l0.394,0.469
		c0.183,0.101,0.379,0.179,0.615,0.179l0.565-0.164l0.437-0.44c0.089-0.2,0.132-0.433,0.132-0.669c0-0.239-0.043-0.468-0.129-0.668
		L48.599,68.374L48.599,68.374z M76.503,70.209c-0.147,0.183-0.354,0.261-0.591,0.261c-0.232,0-0.418-0.078-0.59-0.261
		c-0.164-0.172-0.222-0.4-0.222-0.69c0-0.383,0.058-0.633,0.239-0.787c0.162-0.164,0.354-0.243,0.58-0.243l0.436,0.122l0.275,0.347
		l0.107,0.525C76.738,69.779,76.639,70.037,76.503,70.209L76.503,70.209z M76.503,68.374l-0.591-0.183
		c-0.332,0-0.607,0.118-0.826,0.354c-0.214,0.226-0.307,0.547-0.307,0.966l0.121,0.597l0.422,0.469
		c0.172,0.101,0.372,0.179,0.59,0.179l0.591-0.164l0.407-0.44c0.107-0.2,0.154-0.433,0.154-0.669c0-0.239-0.047-0.468-0.14-0.668
		L76.503,68.374L76.503,68.374z M78.316,68.546h0.619l0.289,0.021l0.211,0.143l0.068,0.262l-0.125,0.325l-0.443,0.114h-0.619V68.546
		L78.316,68.546z M79.636,69.49l0.2-0.533l-0.071-0.34l-0.204-0.236l-0.293-0.114l-0.361-0.021h-0.904v2.461h0.314v-1.009h0.619
		C79.268,69.697,79.511,69.633,79.636,69.49L79.636,69.49z M72.797,68.245h-0.328v2.461h1.494v-0.293h-1.166V68.245L72.797,68.245z"
		/>
	<path fill="#DBEDD4" d="M72.809,27.34l-0.021-0.333l0.561,0.143l0.412-0.165c0.16-0.165,0.282-0.511,0.396-0.751
		c0.333-0.712,0.709-1.556,1.02-2.217h0.146l0.158,0.021c-0.141,0.368-0.408,0.922-0.673,1.462
		c-0.222,0.533-0.447,1.102-0.673,1.484c-0.193,0.354-0.479,0.483-0.736,0.483L72.809,27.34 M72.176,27.201l0.078-0.44l0.043-0.029
		l0.447,0.232l-0.104,0.272l-0.165,0.05L72.176,27.201 M77.368,26.497l-0.093,0.079l-0.611,0.218c-0.211,0-0.44-0.075-0.58-0.254
		c-0.285-0.347-0.186-0.895,0.201-1.216l0.625-0.232c0.229,0,0.43,0.072,0.576,0.261c0.176,0.236,0.197,0.519,0.097,0.79
		l0.015,0.015c0.389,0.175,0.812,0.282,1.244,0.282l0.157-0.036c0.526-0.021,1.038-0.204,1.398-0.547
		c0.998-0.844,0.962-2.55,0.368-3.623c-0.65-0.844-1.498-1.398-2.488-1.398c-0.248,0-0.516,0.036-0.756,0.093
		c-0.765,0.211-1.502,0.669-2.041,1.241c0.214,0.511,0.242,1.094,0.113,1.699l-0.171,0.021l-0.272-0.021
		c0.025-0.497,0.223-1.166-0.242-1.513l-0.462-0.172c-0.368,0-0.733,0.236-1.048,0.336l-0.137-0.426
		c0.423-0.2,0.845-0.386,1.324-0.386l0.469,0.064l0.139,0.122c0.813-0.858,1.982-1.499,3.115-1.499h0.168
		c1.281,0.085,2.512,1.022,2.9,2.231c0.358,1.191,0.254,2.783-0.768,3.609c-0.53,0.404-1.139,0.558-1.75,0.558
		C78.348,26.793,77.826,26.704,77.368,26.497 M70.92,25.971l0.225-0.226l0.344,0.397v0.05l-0.268,0.197L70.92,25.971 M70.73,24.408
		c0.328-0.354,0.794-0.69,1.219-1.059c0.44-0.39,0.838-0.787,1.178-1.095l0.135,0.265c-0.539,0.49-1.18,1.13-1.809,1.681
		l-0.598,0.569c-0.176,0.343,0.039,0.676,0.236,0.955l-0.215,0.147C70.508,25.48,70.258,24.962,70.73,24.408 M78.155,25.212v-1.102
		l-1.091,0.021V23.17l1.055-0.032v-1.087l0.959-0.021v1.094l1.102-0.021v0.995l-1.073,0.014v1.102H78.155 M80.766,22.233v0.021
		V22.233"/>
	<path fill="#DBEDD4" d="M63.785,19.386v-0.483h7.861v0.483H63.785 M69.965,18.471v-3.212h-1.52v3.212h-4.418v-4.406l3.584-2.364
		l3.738,2.364v4.406H69.965 M67.576,11.189l-4.014,2.689l-0.264-0.426l4.277-2.868l4.521,2.861l-0.272,0.433L67.576,11.189"/>
	<path fill="#DBEDD4" d="M58.384,32.512c0.698-0.497,1.474-0.801,2.332-0.887v-0.282h-2.503c-0.34,0-0.647-0.143-0.887-0.386
		c-0.222-0.24-0.354-0.547-0.354-0.901v-2.3v-0.079v-0.944c0-0.697,0.555-1.28,1.241-1.28h3.77l-0.83-1.398l-0.079,0.028
		l-0.343-0.365l0.343-0.325l0.322,0.325l-0.061,0.208l0.912,1.527h0.443l0.895-1.484l-0.086-0.2l0.352-0.333l0.332,0.333
		l-0.332,0.343l-0.072-0.014l-0.844,1.355h1.295c0.693,0,1.262,0.583,1.262,1.28v3.323c0,0.354-0.136,0.662-0.368,0.901
		c-0.235,0.243-0.562,0.386-0.894,0.386h-2.486v0.282c0.822,0.086,1.642,0.39,2.328,0.887H58.384 M57.4,30.055
		c0,0.236,0.079,0.433,0.25,0.568c0.136,0.172,0.343,0.258,0.562,0.258h6.016c0.225,0,0.426-0.086,0.601-0.258
		c0.157-0.136,0.214-0.333,0.214-0.568v-3.323c0-0.472-0.361-0.833-0.814-0.833h-4.589c0.476,0.361,0.869,0.987,0.962,1.778
		c0.086,0.511,0,1.044-0.157,1.47l0.186,0.483c0,0,0.218,0.34,0.461,0.34l0.261-0.161c0,0,0.569-0.776,1.423-0.776
		c0.266,0,0.58,0.086,0.931,0.322l-0.444,0.844c0,0-0.346-0.433-0.793-0.433c-0.223,0-0.443,0.107-0.669,0.347
		c0,0-0.347,0.39-0.766,0.39c-0.304,0-0.651-0.161-0.955-0.765c-0.243,0.275-0.522,0.433-0.887,0.519h-0.165h-0.1l-0.104,0.036
		h-0.165c-0.261,0-0.504-0.093-0.751-0.279c-0.2-0.14-0.361-0.354-0.508-0.633V30.055 M57.4,29.24
		c0.165,0.297,0.336,0.54,0.544,0.715c0.232,0.157,0.454,0.243,0.697,0.243h0.182c0.876-0.122,1.459-1.266,1.266-2.486
		c-0.096-0.791-0.468-1.47-0.987-1.813h-0.891c-0.447,0-0.812,0.361-0.812,0.833v0.554l0.472,0.404l-0.021,0.311l0.057,0.308
		l-0.343,0.412L57.4,28.145V29.24 M62.611,29.629l0.608,0.265l0.239-0.486c-0.222-0.14-0.601-0.204-0.601-0.204L62.611,29.629
		 M62.107,29.422l-0.161,0.315l0.422-0.172l0.175-0.297L62.107,29.422 M58.685,29.537l-0.025-0.73l0.183-0.157l0.504,0.512
		c-0.154,0.204-0.361,0.354-0.594,0.375H58.685 M57.787,29.082l0.347-0.404l0.143,0.114v0.68L57.787,29.082 M59.028,28.231
		l0.014-0.314l-0.014-0.154l0.497-0.498l0.114,0.469c0.061,0.354,0.018,0.708-0.082,1.001L59.028,28.231 M58.642,27.115v-0.805
		c0.257,0.071,0.504,0.265,0.672,0.533l-0.437,0.519L58.642,27.115 M57.565,26.822c0.125-0.261,0.372-0.476,0.633-0.562l0.053,0.855
		l-0.218,0.182L57.565,26.822"/>
	<path fill="#DBEDD4" d="M47.93,18.682v0.021V18.682 M47.948,18.66c-0.007-0.204,0.15-0.297,0.4-0.34l0.791-0.014v-0.014
		l0.021,0.036c0.283,0,0.54-0.021,0.823-0.021l0,0c1.273-0.043,2.55-0.057,3.816-0.107c1.001-0.014,2-0.036,2.99-0.071l0.011,0.007
		c0.222,0,0.425-0.014,0.651-0.028c0.808-0.029,1.617-0.043,2.421-0.072c-0.015,0.229-0.165,0.343-0.369,0.386l-0.687,0.015
		l-0.54-0.015c-1.417,0.029-2.84,0.05-4.231,0.089c-0.437,0.015-4.936,0.15-5.919,0.15H47.948 M49.16,18.084l0.089-0.54l0.072-0.247
		L49.3,17.254l-0.025-0.042c-0.476-0.265-0.662-0.208-0.765-0.705l-0.083-0.354l-0.036-0.128l-0.043-0.147l-0.014-0.007v-0.021
		h-0.018v-0.007l0.046-0.05c0.684-0.412,0.358-0.719,1.184-0.698l-0.018-0.043l0.018,0.007l-0.018-0.007L49.5,15.023l-0.015-0.021
		l0.158-0.072l0.543-0.154c0.586-0.236,1.202-0.476,1.795-0.733c0.619-0.24,1.252-0.49,1.881-0.744
		c-1.28,0.572-2.572,1.148-3.88,1.724l0.036,0.028l0,0l-0.003,0.007l0.011,0.014l0.003,0.021l0.064,0.1l0.25,0.333l0.279,0.322
		l0.028,0.028l-0.021,0.061l-0.128,0.308c-0.143,0.633-0.036,0.576-0.655,0.837l0.018,0.036l-0.136,0.043l0.007,0.036h-0.007
		l0.168,0.801c-0.025,0.136-0.161,0.236-0.494,0.25h-0.018L49.16,18.084 M49.339,17.133c0.046-0.254,0.089-0.511,0.104-0.758
		l-0.015-0.036l-0.025-0.028L49.3,16.26l-0.05-0.129l-0.007-0.021l-0.043-0.036c-0.222-0.05-0.468-0.093-0.69-0.136
		c0.061,0.236,0.104,0.472,0.146,0.705l0.032,0.093l0.54-0.411l-0.461,0.469l0.046,0.064L49.339,17.133 M49.729,17.062l0.436-0.183
		l-0.021-0.036l-0.007-0.05l-0.519-0.533l-0.071,0.05c0.032,0.218,0.089,0.476,0.132,0.694l0.021,0.028v0.015h0.021L49.729,17.062
		 M50.301,16.757c0.007-0.25,0.071-0.447,0.136-0.683l-0.04-0.064c-0.211,0.015-0.418,0.05-0.647,0.058
		c0.214-0.05,0.45-0.129,0.687-0.19l-0.04-0.05l-0.418-0.54h-0.028l-0.333,0.615l0.018,0.057l0.029,0.021l0.014,0.043L49.7,16.06
		h0.021l0.007,0.014h-0.036l-0.057,0.143l0.043,0.093l0.007-0.036L50.301,16.757 M49.006,15.981l0.236,0.093l0.143-0.136
		l-0.021-0.036l-0.025-0.04v0.007l-0.333-0.597l-0.029-0.05l-0.422,0.569l0.014,0.028v0.007l0,0l0.029,0.021L49.006,15.981
		 M49.443,15.903l0.136,0.014l0.039-0.054l0.083-0.222l0.146-0.368l-0.018-0.043v-0.007h-0.007l-0.014-0.014
		c-0.229,0-0.444,0-0.647-0.021l0.029,0.036l-0.029-0.014l0.243,0.64l0.007,0.014l0.018,0.014h0.011L49.443,15.903 M56.789,17.874
		l0.011-0.086l0.032-0.272v-0.021h-0.007L56.8,17.434c-1.255-0.036-2.504-0.1-3.745-0.179c-0.494-0.007-0.984-0.042-1.463-0.057
		c1.584,0.015,3.179,0.036,4.753,0.036l-0.014-0.036l-0.018-0.05l-0.057-0.029c0.029-0.036-0.168-0.086-0.4-0.157l-0.973-0.39
		l-0.004-0.05c0.061-0.418-0.079-0.958-0.25-1.441c-0.064-0.318-0.161-0.612-0.311-0.823l-0.007-0.05l-0.015-0.021l0.301-0.375
		c0.225-0.25,0.418-0.494,0.586-0.712l0.361-0.454V12.63l0.2-0.301l0.4-0.118l0.569,0.014l0.483,0.021
		c0.35,0,0.676-0.021,1.001-0.079l0.379,0.497c0.315,0.476,0.697,1.001,1.123,1.298c0.143,0.143,0.043,0.079-0.043,0.554l-0.1,0.533
		c-0.061,0.286-0.111,0.54-0.154,0.755l-0.114,0.658l0.036,0.043l-0.036-0.043c-0.63,0.271-1.234,0.547-1.832,0.912
		c0.089,0.561,0.161,0.658-0.418,0.658h-0.028L56.789,17.874 M56.896,17.104c0.047-0.597,0.075-1.166,0.107-1.752l-0.032-0.079
		l-0.314-0.107c-0.401,0.39-0.837,0.794-1.241,1.194l0.046,0.083C55.952,16.607,56.431,16.857,56.896,17.104 M57.443,17.047
		c0.429-0.254,0.898-0.476,1.38-0.687l-0.036-0.036l0.011-0.007l-0.254-0.207c-0.397-0.318-0.783-0.655-1.177-0.966l-0.222,0.114
		c0.079,0.569,0.157,1.152,0.254,1.717l0.021,0.036l0,0h0.014L57.443,17.047 M55.211,16.096c0.455-0.333,0.919-0.668,1.374-1.001
		v-0.021l-0.089-0.368l-0.021-0.014v-0.015H56.46l-0.007-0.021c-0.569-0.093-1.116-0.157-1.681-0.214
		c0.175,0.511,0.301,1.03,0.412,1.584l0.014,0.036v0.014h0.003L55.211,16.096 M59.028,15.96c0.054-0.49,0.165-0.98,0.297-1.463
		l-0.036-0.057c-0.587,0.057-1.155,0.165-1.724,0.236l0.029,0.029l-0.029-0.029l-0.107,0.347l0.047,0.05
		C58.012,15.384,58.516,15.685,59.028,15.96 M57.565,14.59c0.569-0.172,1.137-0.333,1.709-0.526l-0.036-0.043h0.011h-0.018
		L59.221,14c-0.379-0.39-0.705-0.78-1.008-1.241l0.039,0.068l0.312,0.444l-0.318-0.422h0.007l-0.053-0.089
		c-0.29,0.504-0.58,0.995-0.873,1.499l0.054,0.079l0.064,0.075l0.104,0.129h0.007L57.565,14.59 M55.884,14.347l0.569,0.15
		l0.043-0.021h0.014l0.097-0.079l0.172-0.125l-0.021-0.043c-0.304-0.476-0.608-0.958-0.901-1.445l-0.014-0.025
		c-0.283,0.461-0.583,0.873-0.938,1.263l0.043,0.093C55.258,14.186,55.587,14.272,55.884,14.347 M57.304,14.064l0.201-0.562
		c0.146-0.283,0.247-0.576,0.368-0.858l-0.04-0.107c-0.529,0.064-1.076,0.107-1.577,0.064l0.007,0.043l-0.036-0.043
		c0.218,0.519,0.436,1.009,0.668,1.52l0.015,0.043l0.032,0.043h0.032C57.204,14.208,57.204,14.3,57.304,14.064 M57.529,17.673
		l0.018,0.143L57.529,17.673 M55.777,16.947l0.079,0.014l0.4,0.157l-0.028,0.014L55.777,16.947 M50.151,17.004l-0.168,0.079
		L50.151,17.004 M48.685,16.947l0.3,0.136L48.685,16.947 M48.935,16.879l0.204,0.083L48.935,16.879 M49.579,16.443L49.579,16.443
		l0.011,0.007L49.579,16.443 M50.645,15.849l0.021,0.014v0.007L50.645,15.849 M49.021,15.323L49.021,15.323l0.318,0.547
		L49.021,15.323 M54.35,14.322l0.075,0.197l0.204,0.562c0.058,0.257,0.101,0.511,0.136,0.776
		C54.618,15.094,54.432,14.554,54.35,14.322 M50.251,15.685l0.107,0.15L50.251,15.685 M56.943,15.352h0.014l-0.014,0.225V15.352
		 M48.978,15.023l0.426,0.028l0.025,0.021c-0.268-0.036-0.404-0.021-0.529,0.079L48.978,15.023 M56.911,14.122
		c-0.132-0.293-0.269-0.59-0.386-0.887L56.911,14.122L56.911,14.122 M59.814,14.043L59.814,14.043v0.007V14.043 M59.7,13.964
		l-0.175-0.168c-0.236-0.265-0.483-0.533-0.701-0.826l-0.247-0.304l-0.354-0.533h0.014h0.014c0.626,0.987,1.259,1.642,1.47,1.846
		l-0.014-0.014 M59.7,13.964"/>
	<path fill="#DBEDD4" d="M47.93,18.682l-0.028-0.397c0.411-0.007,0.819-0.021,1.223-0.021l0.014,0.021
		c-0.569-0.021-1.209-0.014-1.191,0.375c0,0.043,5.604-0.136,6.098-0.15c1.391-0.039,2.814-0.061,4.231-0.089
		c0.239-0.021,0.586,0.029,0.883,0.029c-3.759,0.097-7.464,0.211-11.212,0.283L47.93,18.682 M59.16,18.449h0.154h-0.146H59.16
		 M59.872,18.034c-0.805,0.029-1.613,0.043-2.421,0.072l0.15-0.015v-0.036c0.762-0.036,1.517-0.057,2.271-0.086l0.042,0.064
		l0.021,0.394c-0.214,0.007-0.411,0.007-0.622,0.021C59.607,18.428,59.843,18.328,59.872,18.034 M49.979,18.234
		c2.261-0.064,4.521-0.128,6.778-0.179v0.007l0.032,0.064c-0.991,0.036-1.989,0.057-2.99,0.071c-1.266,0.05-2.543,0.064-3.816,0.107
		L49.979,18.234"/>
	<path fill="#DBEDD4" d="M57.504,15.073l-0.047-0.05l0.107-0.347l0.036,0.072l-0.082,0.29c0.361,0.2,0.748,0.426,1.102,0.647
		l0.365,0.143c0.057-0.447,0.154-0.905,0.29-1.316c-0.551,0.086-1.119,0.165-1.674,0.236l-0.036-0.072
		c0.569-0.071,1.137-0.179,1.724-0.236l0.036,0.057c-0.132,0.483-0.243,0.973-0.297,1.463
		C58.516,15.685,58.012,15.384,57.504,15.073"/>
	<path fill="#DBEDD4" d="M57.547,14.519l-0.168-0.183l-0.054-0.079c0.293-0.504,0.583-0.994,0.873-1.499l0.053,0.089
		c-0.307,0.49-0.579,0.98-0.865,1.481l0.161,0.168l0.487-0.15c0.386-0.089,0.79-0.225,1.169-0.347
		c-0.361-0.354-0.687-0.744-0.952-1.173l-0.039-0.068c0.304,0.461,0.629,0.852,1.008,1.241l0.054,0.064
		c-0.572,0.193-1.141,0.354-1.709,0.526L57.547,14.519"/>
	<path fill="#DBEDD4" d="M56.943,14.208l-0.032-0.043l-0.015-0.043c-0.232-0.511-0.451-1.001-0.668-1.52l0.036,0.043l-0.007-0.043
		c0.501,0.043,1.048,0,1.577-0.064l0.04,0.107c-0.122,0.283-0.222,0.576-0.368,0.858l-0.201,0.562l-0.128,0.165L56.943,14.208
		 M57.24,14l0.239-0.554c0.097-0.261,0.208-0.526,0.308-0.801c-0.49,0.057-0.987,0.057-1.502,0.043
		c0.211,0.483,0.415,0.958,0.626,1.434l0,0C57.168,14.143,57.168,14.257,57.24,14"/>
	<path fill="#DBEDD4" d="M55.884,14.347c-0.296-0.075-0.625-0.161-0.937-0.232l-0.043-0.093c0.354-0.39,0.655-0.801,0.938-1.263
		l0.014,0.025c0.293,0.486,0.597,0.969,0.901,1.445l0.021,0.043l-0.326,0.225L55.884,14.347 M55.988,14.322l0.508,0.14l0.161-0.204
		l0.014-0.136c-0.218-0.347-0.454-0.74-0.683-1.123l-0.104-0.15l-0.139,0.25c-0.229,0.318-0.497,0.64-0.744,0.944
		C55.315,14.15,55.659,14.214,55.988,14.322"/>
	<path fill="#DBEDD4" d="M51.592,17.197c-0.318-0.014-0.647-0.043-0.969-0.05c-0.218-0.015-0.522-0.079-0.758-0.029l-0.018-0.036
		c0.619-0.261,0.512-0.204,0.655-0.837c0.071-0.308,0.165-0.315,0.171-0.329c-0.107,0.315-0.275,0.719-0.236,1.03
		c-0.129,0.028-0.858,0.136-0.394,0.136c0.315,0.021,0.623,0.021,0.901,0.021c0.883,0.028,1.756,0.028,2.636,0.043
		c0.766,0,1.513,0,2.303,0c0.233,0.007,0.344-0.007,0.372-0.029l0.057,0.029l0.032,0.086C54.771,17.233,53.177,17.212,51.592,17.197
		 M55.855,16.961c0.232,0.071,0.429,0.122,0.4,0.157L55.855,16.961 M54.904,16.643l-0.036-0.05c-0.068-0.433-0.125-1.016-0.24-1.513
		c0.172,0.497,0.336,1.073,0.24,1.491l0.987,0.39C55.444,16.857,54.9,16.722,54.904,16.643 M50.673,15.91v0.007V15.91
		 M50.623,15.849c-0.226-0.229-0.415-0.497-0.594-0.755l-0.011-0.043l-0.036-0.028c1.309-0.576,2.6-1.152,3.88-1.724
		c0.5-0.2,0.994-0.4,1.495-0.597l0.021-0.014l-0.136,0.071c-0.608,0.29-1.245,0.558-1.871,0.852
		c-1.091,0.497-2.225,0.994-3.319,1.484l0.59,0.755l0.039,0.054l-0.011,0.007L50.623,15.849 M54.425,14.519l-0.107-0.261
		c0.15,0.204,0.247,0.504,0.311,0.823L54.425,14.519 M54.296,14.208l-0.036-0.086c0.394-0.411,0.755-0.851,1.077-1.295l0.107-0.161
		l0.1-0.036v0.014l-1.249,1.542l0.021,0.071L54.296,14.208"/>
	<path fill="#DBEDD4" d="M49.679,16.01l-0.043-0.05l-0.018-0.057l0.333-0.615h0.028l0.418,0.54l0.04,0.05
		c-0.236,0.061-0.472,0.14-0.687,0.19l-0.021,0.007L49.679,16.01 M49.679,16.01c0.222-0.071,0.458-0.122,0.68-0.175l-0.215-0.265
		l-0.161-0.218l-0.032,0.096l-0.308,0.504L49.679,16.01"/>
	<path fill="#DBEDD4" d="M49.443,15.903l-0.04-0.054l-0.243-0.64l0.039,0.05l0.229,0.59l0.136,0.014l0.014-0.057l0.057-0.236
		l0.143-0.297l-0.58-0.015l-0.039-0.071c0.204,0.021,0.418,0.021,0.647,0.021l0.039,0.064L49.7,15.642l-0.083,0.222l-0.039,0.054
		L49.443,15.903"/>
	<path fill="#DBEDD4" d="M49.006,15.981l-0.408-0.132l-0.043-0.057l0.422-0.569l0.029,0.05l0.333,0.597v-0.007l0.025,0.04
		l0.021,0.036l-0.143,0.136L49.006,15.981 M48.935,15.903l0.254,0.057l0.028,0.021l0.122-0.111l-0.318-0.547l-0.4,0.49
		L48.935,15.903"/>
	<path fill="#DBEDD4" d="M48.688,16.736l-0.032-0.093c-0.043-0.232-0.086-0.469-0.146-0.705c0.222,0.043,0.468,0.086,0.69,0.136
		l0.05,0.057l0.05,0.129l-0.072,0.064L48.688,16.736 M48.688,16.736L48.688,16.736 M48.57,16.096l0.107,0.54l0.572-0.418
		l-0.032-0.093L48.67,16.06l-0.1-0.036V16.096"/>
	<path fill="#DBEDD4" d="M49.339,17.133l-0.526-0.275l-0.046-0.064L49.3,16.26l0.104,0.05l0.04,0.064
		C49.428,16.622,49.385,16.879,49.339,17.133 M49.339,17.133L49.3,17.047c0.039-0.204,0.1-0.44,0.104-0.672L49.3,16.36l-0.19,0.211
		l-0.261,0.265l0.451,0.211l0.007,0.014L49.339,17.133"/>
	<path fill="#DBEDD4" d="M50.301,16.757l-0.615-0.483l-0.007,0.036l-0.043-0.093l0.043-0.143c0.247-0.014,0.486-0.05,0.719-0.064
		l0.04,0.064C50.373,16.311,50.308,16.507,50.301,16.757 M50.301,16.757l-0.05-0.085l0.122-0.59l-0.297,0.029l-0.268,0.021
		l-0.079,0.029l-0.036,0.1l0.558,0.412l0.014,0.042L50.301,16.757"/>
	<path fill="#DBEDD4" d="M49.729,17.062l-0.05-0.057c-0.043-0.218-0.1-0.476-0.132-0.694l0.071-0.05l0.519,0.533l0.028,0.085
		L49.729,17.062 M49.729,17.062L49.729,17.062 M49.636,16.672l0.086,0.318l0.361-0.175l-0.447-0.498l-0.057,0.058v0.068l0.011,0.007
		L49.636,16.672"/>
	<path fill="#DBEDD4" d="M55.183,16.024c-0.111-0.555-0.236-1.073-0.412-1.584c0.565,0.057,1.112,0.122,1.681,0.214l0.043,0.05
		l0.089,0.368v0.021c-0.454,0.333-0.919,0.669-1.374,1.001L55.183,16.024 M54.89,14.748c0.14,0.411,0.236,0.83,0.311,1.262
		c0.286-0.196,0.544-0.404,0.823-0.625l0.472-0.326l-0.043-0.354c-0.447-0.05-0.88-0.1-1.313-0.165l-0.272-0.021L54.89,14.748"/>
	<path fill="#DBEDD4" d="M56.896,17.104c-0.465-0.247-0.944-0.497-1.434-0.662l-0.046-0.083c0.404-0.4,0.84-0.805,1.241-1.194
		l0.314,0.107l0.032,0.079C56.971,15.938,56.943,16.507,56.896,17.104 M56.896,17.104l-0.064-0.057
		c0.064-0.583,0.1-1.145,0.125-1.695l-0.343-0.029l-0.415,0.418c-0.236,0.211-0.472,0.44-0.69,0.655
		c0.455,0.175,0.901,0.39,1.324,0.651l0.028,0.014L56.896,17.104"/>
	<path fill="#DBEDD4" d="M57.443,17.047L57.4,16.976c-0.097-0.565-0.175-1.148-0.254-1.717l0.222-0.114
		c0.465,0.375,0.926,0.758,1.398,1.166l0.057,0.05C58.341,16.571,57.873,16.793,57.443,17.047 M57.443,17.047L57.443,17.047
		 M57.175,15.352l0.021,0.139l0.107,0.619c0.043,0.286,0.075,0.59,0.132,0.858c0.408-0.268,0.866-0.476,1.324-0.658
		c-0.476-0.379-0.916-0.719-1.359-1.087L57.175,15.352"/>
	<path fill="#DBEDD4" d="M49.11,18.249l0.05-0.297l0.243,0.297c0.39-0.015,0.497-0.143,0.494-0.333l0.086,0.39
		c-0.283,0-0.54,0.021-0.823,0.021L49.11,18.249 M56.757,18.063c0.061-0.708,0-0.547-0.705-0.583
		c-0.98-0.046-1.964-0.083-2.961-0.125c-0.93-0.058-1.842-0.101-2.754-0.143c-0.429-0.015-0.544,0.085-0.515,0.304l-0.093-0.354
		c0.25-0.114,0.629-0.029,0.894-0.014c0.801,0.014,1.602,0.086,2.432,0.107c1.241,0.079,2.489,0.143,3.745,0.179l0.032,0.082
		c-0.015,0.336-0.175,0.547,0.207,0.519c0.58,0,0.508-0.097,0.418-0.658c0.598-0.365,1.202-0.641,1.832-0.912l0.057,0.064
		l-0.057-0.064l0.368-1.946c0.086-0.476,0.186-0.411,0.043-0.554l0.093,0.057l0.043,0.064c-0.232,0.78-0.447,1.606-0.49,2.464
		v-0.021c-0.547,0.257-1.069,0.482-1.595,0.769c-0.372,0.197-0.186,0.49-0.15,0.794c-0.275,0.021-0.533,0.043-0.801,0.043
		L56.757,18.063 M49.192,17.795l-0.032,0.157L49.192,17.795 M49.822,17.516l0.075,0.401L49.822,17.516 M49.242,17.48
		c0.058-0.375-0.672-0.601-0.687-0.565l-0.046-0.058l-0.175-0.98l-0.04-0.05c0.569-0.619,0.569-0.848,1.134-0.755l-0.064-0.079
		c1.456-0.554,2.904-1.137,4.342-1.724c0.59-0.236,1.198-0.486,1.795-0.733l0.243-0.368l1.423,0.021c0.29,0,0.74,0,1.044-0.107
		v0.021l0.365,0.562l-0.379-0.497c-0.326,0.057-0.651,0.079-1.001,0.079c-0.301,0.021-1.341-0.143-1.452,0.082
		c-0.186,0.315-0.15,0.272-0.386,0.372c-1.134,0.454-2.268,0.909-3.376,1.341c-0.594,0.257-1.209,0.497-1.795,0.733L49.5,15.023
		l0.046,0.071c-0.858-0.021-0.486,0.29-1.234,0.733l0.036,0.05l0.161,0.63c0.104,0.497,0.29,0.44,0.765,0.705l0.047,0.085
		l-0.129,0.498L49.242,17.48 M58.577,12.666l0.247,0.304c0.218,0.293,0.465,0.562,0.701,0.826l0.175,0.168
		C59.274,13.667,58.892,13.142,58.577,12.666"/>
	<path fill="#DBEDD4" d="M44.865,24.322c-0.694,0.086-1.073-0.808-1.073-0.808c-0.991-2.017,0.641-4.299,0.641-4.299
		c1.706,1.484,1.706,2.693,1.706,2.693c0.058,0.973-0.5,1.874-0.5,1.874c-0.558-1.037-0.873-2.174-0.873-2.174
		c-0.551,1.57,0.136,2.75,0.136,2.75L44.865,24.322"/>
	<path fill="#DBEDD4" d="M43.141,27.526c1.073-1.37,1.938-1.327,1.938-1.327c0.676-0.043,1.266,0.44,1.266,0.44
		c-0.744,0.44-1.545,0.658-1.545,0.658c1.077,0.494,1.896-0.061,1.896-0.061l-0.018,0.061c0.018,0.555-0.601,0.848-0.601,0.848
		c-0.322,0.172-0.64,0.247-0.944,0.247C44.049,28.392,43.141,27.526,43.141,27.526"/>
	<path fill="#DBEDD4" d="M48.556,24.629c0,0,0,0.823-0.175,1.66c0,0-0.64-0.433-0.78-1.126c0,0-0.268-0.805,0.712-2.232
		c0,0,1.703,1.059,1.366,2.693c0,0-0.1,0.687-0.619,0.815l-0.04,0.036C49.021,26.475,49.3,25.502,48.556,24.629"/>
	<path fill="#DBEDD4" d="M47.24,26.815l0.021-0.021l-0.193-0.254l-0.086,0.057c-2.046-1.856-2.217-4.035-2.217-4.035
		c0.815,2.45,2.525,3.727,3.641,4.324l-0.093,0.229l0.343,0.182l0.072-0.247c0.433,0.214,0.737,0.29,0.737,0.29l-0.404,0.647
		C48.334,27.626,47.729,27.223,47.24,26.815"/>
	<path fill="#DBEDD4" d="M48.313,27.115c0.218-0.476,0.375-1.052,0.408-1.735c0,0,0.326,0.812-0.064,1.917L48.313,27.115"/>
	<path fill="#DBEDD4" d="M45.791,27.18c0.504-0.1,0.951-0.447,1.277-0.64l0.193,0.254c-0.647,0.35-1.234,0.386-1.405,0.386H45.791"
		/>
</g>
</svg>
